<svg width="1280" height="451" viewBox="0 0 1280 451" fill="none" xmlns="http://www.w3.org/2000/svg">
<g clip-path="url(#clip0_426_994)">
<path d="M646.308 132.152C628.423 129.864 610.516 127.618 592.636 125.244C589.578 124.843 586.402 124.325 583.624 123.055C562.936 113.512 541.468 119.696 520.339 119.357C513.951 119.252 507.585 119.451 500.379 119.53C506.854 133.382 513.073 146.696 519.311 160.034C518.731 160.385 518.151 160.736 517.57 161.087C510.337 149.807 503.147 138.486 495.826 127.286C492.553 122.275 491.229 114.189 481.918 121.906C478.648 124.612 473.891 126.589 470.144 129.978C460.177 138.951 456.736 138.048 449.732 125.374C445.122 129.68 440.337 134.473 434.071 128.329C433.897 128.144 433.538 127.925 433.388 128.001C418.711 135.487 420.118 121.667 416.112 112.425C411.293 123.847 407.006 134.006 402.72 144.164C402.208 144.064 401.677 143.963 401.165 143.864C403.18 134.311 405.195 124.737 407.298 114.757C406.373 114.652 404.949 114.252 403.556 114.354C359.94 117.268 317.005 113.792 275.088 99.8073C270.789 98.3692 265.957 98.1955 261.381 98.2341C244.422 98.3926 227.483 98.9208 209.724 99.3071C217.174 111.773 224.681 124.329 233.127 138.444C223.402 127.299 214.934 117.582 208.227 109.87C201.601 111.266 195.946 114.396 192.66 112.636C188.751 110.574 186.902 104.294 184.173 99.8623C179.888 105.946 175.06 112.795 169.096 121.279C168.662 121.272 165.953 121.241 162.541 121.206C162.298 117.072 162.066 113.437 161.861 109.695C151.243 116.458 148.882 115.475 140.513 100.455C136.458 107.508 132.54 114.353 128.624 121.177C127.81 120.948 127.016 120.743 126.202 120.515C128.412 110.477 130.6 100.459 132.952 89.781C124.16 90.7494 115.35 91.9985 106.474 92.6362C64.7147 95.6327 23.5497 92.3189 -16.8619 80.1045C-23.4247 78.1237 -30.7394 78.9533 -37.7053 78.4842C-37.989 79.3971 -38.292 80.287 -38.5757 81.1998C-29.8939 90.8007 -21.2108 100.38 -12.5291 109.981C-13.0674 110.66 -13.6058 111.339 -14.1442 112.018C-26.8661 101.82 -39.5674 91.6231 -52.643 81.1195C-53.5541 82.8137 -54.6067 85.127 -55.9552 87.2035C-57.0983 88.9688 -58.3857 90.7244 -59.939 92.0936C-64.1864 95.8823 -81.2255 95.6669 -85.9843 91.9436C-95.1576 100.125 -95.375 99.9591 -103.126 75.8778C-108.367 84.3894 -112.825 91.61 -117.283 98.8306C-117.791 98.6664 -118.298 98.5022 -118.805 98.338C-117.072 91.3457 -115.338 84.3318 -113.443 76.7219C-131.147 73.5141 -147.679 68.4129 -166.125 71.2237C-186.095 74.2571 -206.706 72.5657 -227.029 72.9094C-229.577 72.9546 -232.138 72.8688 -234.703 72.8478C-234.57 70.6894 -234.438 68.5309 -234.305 66.3725C-213.437 65.567 -192.569 64.7615 -171.699 63.9344C-171.681 62.9603 -171.684 62.0064 -171.666 61.0324C-191.746 55.0637 -212.237 51.083 -233.248 50.1666L-232.851 43.6913C-207.708 43.7154 -182.77 46.3918 -158.899 54.653C-145.342 59.3372 -132.351 55.3787 -119.142 55.618C-115.586 55.684 -112.013 55.1227 -107.522 54.7749C-110.982 46.4143 -114.26 38.456 -117.558 30.4964C-117.088 30.2463 -116.617 29.9962 -116.126 29.7475C-111.961 35.7282 -107.797 41.7305 -103.672 47.6868C-92.4064 40.8162 -89.9757 41.6735 -83.0444 54.1692C-78.5062 52.0473 -73.9391 48.1068 -69.655 48.4386C-65.6389 48.7524 -61.6065 53.1853 -58.1894 56.5147C-54.596 60.0078 -52.4014 60.329 -50.0484 55.3724C-46.1543 47.2252 -41.9397 39.2513 -37.8462 31.2259C-37.7764 31.1005 -37.3669 31.1715 -36.2214 31.0535C-38.9112 40.8207 -41.5219 50.3114 -44.2934 60.3981C-33.0257 62.9341 -22.4945 66.0057 -10.4399 64.1516C37.133 56.7999 84.1505 60.8547 130.435 74.4832C132.367 75.0467 134.329 75.439 138.039 76.3607C132.777 60.9431 127.956 46.7689 123.115 32.5934L124.785 31.6871C131.259 41.8546 137.753 52.0235 144.226 62.2125C151.066 55.5208 159.022 57.1619 168.095 67.1359C173.696 64.5654 178.796 60.0323 183.292 60.6168C190.909 61.6065 199.405 64.4544 198.31 75.8894C207.739 61.1794 216.94 46.8223 226.142 32.4437C226.898 32.9281 227.654 33.4342 228.431 33.92C222.675 47.7937 216.917 61.689 211.234 75.3726C231.012 78.8501 249.198 82.6322 267.537 84.9292C274.459 85.7854 281.762 83.1129 288.881 82.0968C328.128 76.5469 367.087 78.7152 405.789 87.0866C407.484 87.4608 409.21 87.6637 411.443 88.0308C407.996 72.7137 404.676 58.0337 401.374 43.3767L403.508 42.6751C408.808 56.7948 414.108 70.9146 419.23 84.5672C422.9 82.0835 426.517 77.7755 430.25 77.6584C434.001 77.5642 437.848 81.6379 442.081 84.1553C449.916 77.2055 459.694 80.4214 464.171 92.1016C467.939 90.0579 471.837 86.2241 475.507 86.4495C479.443 86.7146 483.189 90.7597 487.771 93.6475C494.638 80.9105 501.782 67.6938 508.905 54.4756C509.47 54.7087 510.035 54.9418 510.602 55.1534C506.028 67.958 501.435 80.7613 496.562 94.3912C504.774 95.4643 512.814 96.3091 520.807 97.5842C529.967 99.0464 539.398 99.8115 548.091 102.824C562.479 107.803 576.152 101.831 590.138 101.885C609.443 101.949 628.751 102.621 648.054 103.032L647.657 109.507C626.64 107.68 605.732 108.461 582.795 112.617C587.218 114.064 589.553 115.131 592.009 115.578C610.216 119.015 628.452 122.324 646.664 125.674L646.267 132.149L646.308 132.152ZM124.132 81.753C85.1635 69.6357 45.5312 67.9856 5.46636 73.7188C44.4764 85.1669 84.0067 88.479 124.132 81.753ZM403.328 100.554C368.989 91.8909 334.308 89.1437 299.169 93.518C333.464 102.893 368.199 104.755 403.328 100.554Z" fill="white"/>
<path d="M1526.53 191.42C1508.64 189.132 1490.74 186.886 1472.86 184.511C1469.8 184.11 1466.62 183.593 1463.84 182.322C1443.16 172.78 1421.69 178.963 1400.56 178.624C1394.17 178.519 1387.81 178.719 1380.6 178.797C1387.08 192.649 1393.29 205.964 1399.53 219.302C1398.95 219.653 1398.37 220.004 1397.79 220.355C1390.56 209.074 1383.37 197.753 1376.05 186.553C1372.77 181.543 1371.45 173.456 1362.14 181.174C1358.87 183.879 1354.11 185.856 1350.37 189.245C1340.4 198.219 1336.96 197.315 1329.95 184.641C1325.34 188.948 1320.56 193.74 1314.29 187.597C1314.12 187.411 1313.76 187.192 1313.61 187.269C1298.93 194.755 1300.34 180.935 1296.33 171.692C1291.51 183.115 1307.4 159.263 1303.11 169.421C1320.46 128.326 1316.42 135.723 1301.56 169.121C1303.57 159.569 1285.42 184.005 1287.52 174.025C1286.59 173.919 1285.17 173.52 1283.78 173.621C1240.16 176.536 1197.23 173.06 1155.31 159.075C1151.01 157.637 1146.18 157.463 1141.6 157.502C1124.64 157.66 1107.7 158.188 1089.94 158.575C1097.39 171.04 1104.9 183.596 1113.35 197.711C1103.62 186.566 1095.15 176.85 1088.45 169.137C1081.82 170.534 1076.17 173.664 1072.88 171.904C1068.97 169.842 1067.12 163.562 1064.39 159.13C1060.11 165.213 1055.28 172.062 1049.32 180.547C1048.88 180.539 1046.17 180.509 1042.76 180.474C1042.52 176.34 1042.29 172.704 1042.08 168.963C1031.46 175.725 1029.1 174.743 1020.73 159.723C1016.68 166.775 1012.76 173.621 1008.84 180.444C1008.03 180.216 1007.24 180.011 1006.42 179.783C1008.63 169.745 1010.82 159.727 1013.17 149.049C1004.38 150.017 995.57 151.266 986.695 151.904C944.935 154.9 903.77 151.586 863.359 139.372C856.796 137.391 849.481 138.221 842.515 137.752C842.232 138.665 841.929 139.555 841.645 140.467C850.327 150.068 859.01 159.648 867.692 169.249C867.153 169.928 866.615 170.606 866.077 171.285C853.355 161.087 840.653 150.891 827.578 140.387C826.667 142.081 825.614 144.395 824.265 146.471C823.122 148.236 821.835 149.992 820.282 151.361C816.034 155.15 798.995 154.934 794.236 151.211C785.063 159.393 784.846 159.227 777.094 135.145C771.853 143.657 767.395 150.878 762.937 158.098C762.43 157.934 761.923 157.77 761.415 157.606C763.148 150.613 764.883 143.599 766.778 135.989C749.074 132.782 732.542 127.68 714.096 130.491C694.126 133.525 673.514 131.833 653.192 132.177C650.644 132.222 648.083 132.136 645.518 132.115C645.651 129.957 645.783 127.799 645.916 125.64C666.784 124.835 687.652 124.029 708.521 123.202C708.54 122.228 708.536 121.274 708.555 120.3C688.475 114.331 667.983 110.351 646.973 109.434L647.37 102.959C672.512 102.983 697.451 105.659 721.322 113.921C734.879 118.605 747.87 114.646 761.079 114.886C764.634 114.952 768.207 114.39 772.699 114.043C769.239 105.682 765.961 97.7236 762.662 89.7639C763.133 89.5139 763.604 89.2638 764.095 89.0151C768.26 94.9958 772.424 100.998 776.549 106.954C787.814 100.084 790.245 100.941 797.176 113.437C801.714 111.315 806.282 107.374 810.566 107.706C814.582 108.02 818.614 112.453 822.031 115.782C825.625 119.275 827.819 119.597 830.172 114.64C834.066 106.493 838.281 98.5189 842.375 90.4935C842.444 90.3681 842.854 90.439 843.999 90.3211C841.309 100.088 838.699 109.579 835.927 119.666C847.195 122.202 857.726 125.273 869.781 123.419C917.354 116.068 964.371 120.122 1010.66 133.751C1012.59 134.314 1014.55 134.707 1018.26 135.628C1013 120.211 1008.18 106.037 1003.34 91.8609L1005.01 90.9547C1011.48 101.122 1017.97 111.291 1024.45 121.48C1031.29 114.788 1039.24 116.429 1048.32 126.404C1053.92 123.833 1059.02 119.3 1063.51 119.884C1071.13 120.874 1079.63 123.722 1078.53 135.157C1087.96 120.447 1097.16 106.09 1106.36 91.7113C1107.12 92.1957 1107.87 92.7017 1108.65 93.1876C1102.9 107.061 1097.14 120.957 1091.46 134.64C1111.23 138.118 1129.42 141.9 1147.76 144.197C1154.68 145.053 1161.98 142.38 1169.1 141.364C1208.35 135.814 1247.31 137.983 1286.01 146.354C1287.7 146.728 1289.43 146.931 1291.66 147.298C1288.22 131.981 1284.9 117.301 1281.6 102.644L1283.73 101.943C1289.03 116.062 1294.33 130.182 1299.45 143.835C1303.12 141.351 1306.74 137.043 1310.47 136.926C1314.22 136.832 1318.07 140.905 1322.3 143.423C1330.14 136.473 1339.91 139.689 1344.39 151.369C1348.16 149.325 1352.06 145.492 1355.73 145.717C1359.66 145.982 1363.41 150.027 1367.99 152.915C1374.86 140.178 1382 126.961 1389.13 113.743C1389.69 113.976 1390.26 114.209 1390.82 114.421C1386.25 127.226 1381.66 140.029 1376.78 153.659C1384.99 154.732 1393.03 155.577 1401.03 156.852C1410.19 158.314 1419.62 159.079 1428.31 162.092C1442.7 167.07 1456.37 161.099 1470.36 161.152C1489.66 161.217 1508.97 161.888 1528.27 162.3L1527.88 168.775C1506.86 166.948 1485.95 167.729 1463.02 171.885C1467.44 173.331 1469.77 174.399 1472.23 174.846C1490.44 178.283 1508.67 181.591 1526.88 184.942L1526.49 191.417L1526.53 191.42ZM1004.35 141.021C965.384 128.903 925.752 127.253 885.687 132.986C924.697 144.434 964.227 147.747 1004.35 141.021ZM1283.55 159.821C1249.21 151.158 1214.53 148.411 1179.39 152.786C1213.68 162.161 1248.42 164.023 1283.55 159.821Z" fill="white"/>
<path d="M646.308 354.152C628.423 351.864 610.516 349.618 592.636 347.244C589.578 346.843 586.402 346.325 583.624 345.055C562.936 335.512 541.468 341.696 520.339 341.357C513.951 341.252 507.585 341.451 500.379 341.53C506.854 355.382 513.073 368.696 519.311 382.034C518.731 382.385 518.151 382.736 517.57 383.087C510.337 371.807 503.147 360.486 495.826 349.286C492.553 344.275 491.229 336.189 481.918 343.906C478.648 346.612 473.891 348.589 470.144 351.978C460.177 360.951 456.736 360.048 449.732 347.374C445.122 351.68 440.337 356.473 434.071 350.329C433.897 350.144 433.538 349.925 433.388 350.001C418.711 357.487 420.118 343.667 416.112 334.425C411.293 345.847 407.006 356.006 402.72 366.164C402.208 366.064 401.677 365.963 401.165 365.864C403.18 356.311 405.195 346.737 407.298 336.757C406.373 336.652 404.949 336.252 403.556 336.354C359.94 339.268 317.005 335.792 275.088 321.807C270.789 320.369 265.957 320.195 261.381 320.234C244.422 320.393 227.483 320.921 209.724 321.307C217.174 333.773 224.681 346.329 233.127 360.444C223.402 349.299 214.934 339.582 208.227 331.87C201.601 333.266 195.946 336.396 192.66 334.636C188.751 332.574 186.902 326.294 184.173 321.862C179.888 327.946 175.06 334.795 169.096 343.279C168.662 343.272 165.953 343.241 162.541 343.206C162.298 339.072 162.066 335.437 161.861 331.695C151.243 338.458 148.882 337.475 140.513 322.455C136.458 329.508 132.54 336.353 128.624 343.177C127.81 342.948 127.016 342.743 126.202 342.515C128.412 332.477 130.6 322.459 132.952 311.781C124.16 312.749 115.35 313.998 106.474 314.636C64.7147 317.633 23.5497 314.319 -16.8619 302.104C-23.4247 300.124 -30.7394 300.953 -37.7053 300.484C-37.989 301.397 -38.292 302.287 -38.5757 303.2C-29.8939 312.801 -21.2108 322.38 -12.5291 331.981C-13.0674 332.66 -13.6058 333.339 -14.1442 334.018C-26.8661 323.82 -39.5674 313.623 -52.643 303.119C-53.5541 304.814 -54.6067 307.127 -55.9552 309.204C-57.0983 310.969 -58.3857 312.724 -59.939 314.094C-64.1864 317.882 -81.2255 317.667 -85.9843 313.944C-95.1576 322.125 -95.375 321.959 -103.126 297.878C-108.367 306.389 -112.825 313.61 -117.283 320.831C-117.791 320.666 -118.298 320.502 -118.805 320.338C-117.072 313.346 -115.338 306.332 -113.443 298.722C-131.147 295.514 -147.679 290.413 -166.125 293.224C-186.095 296.257 -206.706 294.566 -227.029 294.909C-229.577 294.955 -232.138 294.869 -234.703 294.848C-234.57 292.689 -234.438 290.531 -234.305 288.372C-213.437 287.567 -192.569 286.761 -171.699 285.934C-171.681 284.96 -171.684 284.006 -171.666 283.032C-191.746 277.064 -212.237 273.083 -233.248 272.167L-232.851 265.691C-207.708 265.715 -182.77 268.392 -158.899 276.653C-145.342 281.337 -132.351 277.379 -119.142 277.618C-115.586 277.684 -112.013 277.123 -107.522 276.775C-110.982 268.414 -114.26 260.456 -117.558 252.496C-117.088 252.246 -116.617 251.996 -116.126 251.748C-111.961 257.728 -107.797 263.73 -103.672 269.687C-92.4064 262.816 -89.9757 263.673 -83.0444 276.169C-78.5062 274.047 -73.9391 270.107 -69.655 270.439C-65.6389 270.752 -61.6065 275.185 -58.1894 278.515C-54.596 282.008 -52.4014 282.329 -50.0484 277.372C-46.1543 269.225 -41.9397 261.251 -37.8462 253.226C-37.7764 253.101 -37.3669 253.171 -36.2214 253.054C-38.9112 262.821 -41.5219 272.311 -44.2934 282.398C-33.0257 284.934 -22.4945 288.006 -10.4399 286.152C37.133 278.8 84.1505 282.855 130.435 296.483C132.367 297.047 134.329 297.439 138.039 298.361C132.777 282.943 127.956 268.769 123.115 254.593L124.785 253.687C131.259 263.855 137.753 274.023 144.226 284.213C151.066 277.521 159.022 279.162 168.095 289.136C173.696 286.565 178.796 282.032 183.292 282.617C190.909 283.607 199.405 286.454 198.31 297.889C207.739 283.179 216.94 268.822 226.142 254.444C226.898 254.928 227.654 255.434 228.431 255.92C222.675 269.794 216.917 283.689 211.234 297.373C231.012 300.85 249.198 304.632 267.537 306.929C274.459 307.785 281.762 305.113 288.881 304.097C328.128 298.547 367.087 300.715 405.789 309.087C407.484 309.461 409.21 309.664 411.443 310.031C407.996 294.714 404.676 280.034 401.374 265.377L403.508 264.675C408.808 278.795 414.108 292.915 419.23 306.567C422.9 304.083 426.517 299.776 430.25 299.658C434.001 299.564 437.848 303.638 442.081 306.155C449.916 299.205 459.694 302.421 464.171 314.102C467.939 312.058 471.837 308.224 475.507 308.45C479.443 308.715 483.189 312.76 487.771 315.647C494.638 302.911 501.782 289.694 508.905 276.476C509.47 276.709 510.035 276.942 510.602 277.153C506.028 289.958 501.435 302.761 496.562 316.391C504.774 317.464 512.814 318.309 520.807 319.584C529.967 321.046 539.398 321.812 548.091 324.824C562.479 329.803 576.152 323.831 590.138 323.885C609.443 323.949 628.751 324.621 648.054 325.032L647.657 331.507C626.64 329.68 605.732 330.461 582.795 334.617C587.218 336.064 589.553 337.131 592.009 337.578C610.216 341.015 628.452 344.324 646.664 347.674L646.267 354.149L646.308 354.152ZM124.132 303.753C85.1635 291.636 45.5312 289.986 5.46636 295.719C44.4764 307.167 84.0067 310.479 124.132 303.753ZM403.328 322.554C368.989 313.891 334.308 311.144 299.169 315.518C333.464 324.893 368.199 326.755 403.328 322.554Z" fill="white"/>
<path d="M1526.53 413.42C1508.64 411.132 1490.74 408.886 1472.86 406.511C1469.8 406.11 1466.62 405.593 1463.84 404.322C1443.16 394.78 1421.69 400.963 1400.56 400.624C1394.17 400.519 1387.81 400.719 1380.6 400.797C1387.08 414.649 1393.29 427.964 1399.53 441.302C1398.95 441.653 1398.37 442.004 1397.79 442.355C1390.56 431.074 1383.37 419.753 1376.05 408.553C1372.77 403.543 1371.45 395.456 1362.14 403.174C1358.87 405.879 1354.11 407.856 1350.37 411.245C1340.4 420.219 1336.96 419.315 1329.95 406.641C1325.34 410.948 1320.56 415.74 1314.29 409.597C1314.12 409.411 1313.76 409.192 1313.61 409.269C1298.93 416.755 1300.34 402.935 1296.33 393.692C1291.51 405.115 1307.4 381.263 1303.11 391.421C1320.46 350.326 1316.42 357.723 1301.56 391.121C1303.57 381.569 1285.42 406.005 1287.52 396.025C1286.59 395.919 1285.17 395.52 1283.78 395.621C1240.16 398.536 1197.23 395.06 1155.31 381.075C1151.01 379.637 1146.18 379.463 1141.6 379.502C1124.64 379.66 1107.7 380.188 1089.94 380.575C1097.39 393.04 1104.9 405.596 1113.35 419.711C1103.62 408.566 1095.15 398.85 1088.45 391.137C1081.82 392.534 1076.17 395.664 1072.88 393.904C1068.97 391.842 1067.12 385.562 1064.39 381.13C1060.11 387.213 1055.28 394.062 1049.32 402.547C1048.88 402.539 1046.17 402.509 1042.76 402.474C1042.52 398.34 1042.29 394.704 1042.08 390.963C1031.46 397.725 1029.1 396.743 1020.73 381.723C1016.68 388.775 1012.76 395.621 1008.84 402.444C1008.03 402.216 1007.24 402.011 1006.42 401.783C1008.63 391.745 1010.82 381.727 1013.17 371.049C1004.38 372.017 995.57 373.266 986.695 373.904C944.935 376.9 903.77 373.586 863.359 361.372C856.796 359.391 849.481 360.221 842.515 359.752C842.232 360.665 841.929 361.555 841.645 362.467C850.327 372.068 859.01 381.648 867.692 391.249C867.153 391.928 866.615 392.606 866.077 393.285C853.355 383.087 840.653 372.891 827.578 362.387C826.667 364.081 825.614 366.395 824.265 368.471C823.122 370.236 821.835 371.992 820.282 373.361C816.034 377.15 798.995 376.934 794.236 373.211C785.063 381.393 784.846 381.227 777.094 357.145C771.853 365.657 767.395 372.878 762.937 380.098C762.43 379.934 761.923 379.77 761.415 379.606C763.148 372.613 764.883 365.599 766.778 357.989C749.074 354.782 732.542 349.68 714.096 352.491C694.126 355.525 673.514 353.833 653.192 354.177C650.644 354.222 648.083 354.136 645.518 354.115C645.651 351.957 645.783 349.799 645.916 347.64C666.784 346.835 687.652 346.029 708.521 345.202C708.54 344.228 708.536 343.274 708.555 342.3C688.475 336.331 667.983 332.351 646.973 331.434L647.37 324.959C672.512 324.983 697.451 327.659 721.322 335.921C734.879 340.605 747.87 336.646 761.079 336.886C764.634 336.952 768.207 336.39 772.699 336.043C769.239 327.682 765.961 319.724 762.662 311.764C763.133 311.514 763.604 311.264 764.095 311.015C768.26 316.996 772.424 322.998 776.549 328.954C787.814 322.084 790.245 322.941 797.176 335.437C801.714 333.315 806.282 329.374 810.566 329.706C814.582 330.02 818.614 334.453 822.031 337.782C825.625 341.275 827.819 341.597 830.172 336.64C834.066 328.493 838.281 320.519 842.375 312.493C842.444 312.368 842.854 312.439 843.999 312.321C841.309 322.088 838.699 331.579 835.927 341.666C847.195 344.202 857.726 347.273 869.781 345.419C917.354 338.068 964.371 342.122 1010.66 355.751C1012.59 356.314 1014.55 356.707 1018.26 357.628C1013 342.211 1008.18 328.037 1003.34 313.861L1005.01 312.955C1011.48 323.122 1017.97 333.291 1024.45 343.48C1031.29 336.788 1039.24 338.429 1048.32 348.404C1053.92 345.833 1059.02 341.3 1063.51 341.884C1071.13 342.874 1079.63 345.722 1078.53 357.157C1087.96 342.447 1097.16 328.09 1106.36 313.711C1107.12 314.196 1107.87 314.702 1108.65 315.188C1102.9 329.061 1097.14 342.957 1091.46 356.64C1111.23 360.118 1129.42 363.9 1147.76 366.197C1154.68 367.053 1161.98 364.38 1169.1 363.364C1208.35 357.814 1247.31 359.983 1286.01 368.354C1287.7 368.728 1289.43 368.931 1291.66 369.298C1288.22 353.981 1284.9 339.301 1281.6 324.644L1283.73 323.943C1289.03 338.062 1294.33 352.182 1299.45 365.835C1303.12 363.351 1306.74 359.043 1310.47 358.926C1314.22 358.832 1318.07 362.905 1322.3 365.423C1330.14 358.473 1339.91 361.689 1344.39 373.369C1348.16 371.325 1352.06 367.492 1355.73 367.717C1359.66 367.982 1363.41 372.027 1367.99 374.915C1374.86 362.178 1382 348.961 1389.13 335.743C1389.69 335.976 1390.26 336.209 1390.82 336.421C1386.25 349.226 1381.66 362.029 1376.78 375.659C1384.99 376.732 1393.03 377.577 1401.03 378.852C1410.19 380.314 1419.62 381.079 1428.31 384.092C1442.7 389.07 1456.37 383.099 1470.36 383.152C1489.66 383.217 1508.97 383.888 1528.27 384.3L1527.88 390.775C1506.86 388.948 1485.95 389.729 1463.02 393.885C1467.44 395.331 1469.77 396.399 1472.23 396.846C1490.44 400.283 1508.67 403.591 1526.88 406.942L1526.49 413.417L1526.53 413.42ZM1004.35 363.021C965.384 350.903 925.752 349.253 885.687 354.986C924.697 366.434 964.227 369.747 1004.35 363.021ZM1283.55 381.821C1249.21 373.158 1214.53 370.411 1179.39 374.786C1213.68 384.161 1248.42 386.023 1283.55 381.821Z" fill="white"/>
</g>
<defs>
<clipPath id="clip0_426_994">
<rect width="1280" height="451" fill="white"/>
</clipPath>
</defs>
</svg>
