<svg width="1280" height="1061" viewBox="0 0 1280 1061" fill="none" xmlns="http://www.w3.org/2000/svg">
<g clip-path="url(#clip0_464_45)">
<rect width="1280" height="1061" fill="black"/>
<rect x="50" y="456" width="1180" height="530" fill="white"/>
<path d="M1084.79 89.2221C1083.81 89.8211 1082.83 90.4201 1081.85 91.019C1082.03 91.3708 1082.21 91.7226 1082.4 92.0648C1087.09 90.7243 1093.02 92.3025 1095.34 85.5998C1097.77 85.7615 1100.28 87.8055 1102.33 84.7537C1101.37 84.1547 1100.54 83.6413 1099.06 82.7286C1100.83 82.3198 1101.99 82.0536 1103.41 81.7208C1102.89 80.9222 1102.44 80.2092 1101.82 79.2394C1106.84 75.9118 1111.82 72.5082 1116.92 69.2757C1120.05 67.2887 1122.96 67.7355 1126.15 69.8366C1134.54 75.3889 1143.04 80.8081 1151.76 85.8185C1154.85 87.5964 1158.66 88.2239 1162.22 89.07C1180.4 93.3864 1195.49 102.494 1206.51 117.782C1208.56 120.625 1210.16 123.953 1211.26 127.29C1212.06 129.714 1213.31 130.275 1215.51 130.465C1218.17 130.703 1220.9 131.026 1223.44 131.815C1226.73 132.851 1228.89 134.173 1228.94 137.605C1229.18 153.359 1229 170.424 1228.94 186.178C1228.77 224.074 1229.32 261.613 1228.94 299.5C1228.77 316.471 1230.74 333.799 1230.38 350.77C1229.98 369.394 1230.91 386.885 1230.38 405.5C1230.27 409.132 1230.38 411.5 1230.38 414.393C1230.38 423 1230.38 424.5 1230.38 430.5C1230.38 440 1230.38 440.5 1230.38 449.5C1230.38 458.5 1230.35 464.86 1230 472C1229.87 474.814 1225.07 474.698 1222.94 474.745C1207.3 475.05 1217.99 472.939 1202.36 472.977C1170.71 473.053 1139.07 472.93 1107.42 472.758C1088.58 472.654 1069.75 472.255 1050.92 472.074C1038.27 471.95 1025.61 472.055 1012.95 471.941C1006.81 471.884 1000.67 471.532 994.52 471.361C991.426 471.275 989.927 469.678 990.003 466.664C990.136 461.331 990.259 455.987 990.667 450.673C990.79 449.114 991.711 447.545 992.518 446.128C996.997 438.171 1001.37 430.137 1006.19 422.379C1007.85 419.698 1010.72 417.777 1013.01 415.486C1015.52 412.957 1018.43 410.647 1018.39 406.568C1018.12 383.171 1017.83 359.773 1017.58 336.375C1017.07 289.457 1016.56 242.538 1016.08 195.609C1015.89 176.966 1015.76 158.322 1015.69 139.678C1015.69 137.852 1016.45 136.036 1016.68 134.192C1016.78 133.308 1016.12 132.243 1016.41 131.501C1016.86 130.408 1017.67 128.944 1018.63 128.678C1021.65 127.832 1024.78 127.299 1027.9 126.966C1030.46 126.691 1031.81 125.521 1032.85 123.154C1038.06 111.27 1046.59 102.304 1057.77 95.9058C1061.61 93.7096 1065.63 91.5419 1069.84 90.3535C1074.61 89.013 1079.7 88.7848 1084.64 88.0717C1084.68 88.452 1084.72 88.8323 1084.76 89.2126L1084.79 89.2221ZM1025.29 163.874C1027.84 161.573 1026.46 157.038 1030.84 157.894C1030.87 157.894 1030.9 157.361 1031.06 157.266C1031.86 156.743 1032.7 156.23 1033.56 155.802C1034.07 155.545 1034.92 155.631 1035.18 155.26C1036.39 153.558 1034.47 148.548 1032.32 147.521C1032.39 150.513 1030.49 152.059 1026.61 152.161C1026.21 155.745 1025.8 159.377 1025.29 163.874ZM1025.61 163.978C1026.09 166.793 1026.45 168.903 1026.8 170.9C1029.01 170.415 1030.83 170.025 1032.64 169.616C1031.39 166.219 1030.26 165.094 1029.26 166.241C1028.11 165.528 1026.97 164.825 1025.62 163.978H1025.61ZM1100.2 105.061C1099.96 107.144 1099.78 108.741 1099.6 110.328C1100.63 110.129 1102.06 110.281 1102.61 109.653C1104.28 107.742 1102.96 106.564 1100.2 105.061ZM1176.09 141.227C1178 140.6 1179.6 140.086 1181.05 139.611C1179.86 138.86 1178.71 137.529 1177.65 137.605C1175.62 137.748 1174.53 139.06 1176.09 141.227Z" fill="white"/>
<path d="M878.674 151.951C874.494 154.015 870.499 157.272 866.135 157.823C859.958 158.626 858.511 161.401 858.856 166.837C859.2 172.526 859.499 178.283 858.994 183.926C858.672 187.481 856.789 190.922 855.526 194.661C859.66 195.739 861.91 193.629 861.864 188.422C861.818 181.541 861.979 174.659 861.795 167.778C861.611 161.24 865.561 160.506 870.774 160.438C876.584 160.369 877.112 163.488 876.883 168.191C876.492 175.623 876.102 183.146 876.883 190.509C877.158 193.193 880.603 197.505 882.853 197.689C902.028 199.203 917.07 208.745 932.594 219.159C942.996 226.132 947.336 232.623 947.704 245.285C948.898 286.505 951.746 327.678 953.973 368.875C954.478 378.027 955.259 387.157 955.466 396.332C955.581 401.263 957.05 404.085 962.424 403.488C969.129 402.731 973.401 405.989 976.042 411.746C979.371 419.04 982.242 426.541 985.778 433.698C987.914 438.033 991.198 441.795 993.563 446.038C994.895 448.424 996.526 451.635 995.837 453.814C995.331 455.42 991.359 456.75 988.902 456.819C976.845 457.117 964.789 456.957 952.756 456.957C884.461 456.957 816.166 456.934 747.87 456.865C744.219 456.865 740.591 456.498 734 456.131C737.284 451.222 739.397 448.057 741.509 444.937C743.025 442.689 744.816 440.579 746.079 438.194C750.557 429.615 753.565 419.889 759.628 412.687C763.784 407.755 772.097 406.287 778.321 403.374C774.945 398.144 780.204 286.918 785.669 278.912C786.22 280.564 786.634 281.802 787.093 283.133C787.437 282.766 787.966 282.468 788.012 282.101C789.642 268.2 791.066 254.254 792.949 240.399C793.293 237.876 794.901 234.917 796.876 233.357C803.099 228.403 810.034 224.366 816.211 219.365C830.38 207.873 847.075 208.493 862.507 209.066C863.495 206.084 864.298 203.676 865.309 200.602C862.622 199.983 858.879 198.606 855.044 198.308C843.654 197.391 843.791 197.574 844.71 186.22C845.169 180.577 845.33 174.843 844.94 169.2C844.71 165.851 843.906 160.438 842 159.772C837.247 158.098 831.712 158.58 825.902 158.167C825.397 155.3 824.456 150.093 823.376 144.083C829.324 144.381 834.606 144.771 839.887 144.863C844.572 144.954 846.593 143.028 845.514 137.867C843.309 127.384 844.985 125.687 856.054 124.471C858.006 124.264 861.336 122.039 861.29 120.847C861.037 112.52 867.169 115.663 870.981 115.25C876.286 114.653 876.906 118.301 876.745 122.498C876.492 129.058 876.125 135.619 876.4 142.156C876.538 145.436 878.008 148.67 878.858 151.928L878.697 151.996L878.674 151.951ZM791.112 404.498L791.318 405.484H847.833L847.787 404.498H791.089H791.112Z" fill="white"/>
<path d="M656.541 399.631C667.933 399.631 677.775 399.813 687.617 399.571C694.755 399.389 697.064 402.209 695.758 409.276C693.844 419.68 692.295 430.204 691.171 440.729C690.806 444.095 691.171 448.645 693.176 450.92C699.008 457.562 705.843 463.355 712.283 469.482C711.554 470.665 710.825 471.817 710.126 473H537.189C536.46 471.908 535.731 470.816 535.002 469.724C541.017 463.507 547.001 457.259 555.446 448.524C554.687 440.001 554.049 427.201 552.256 414.584C551.011 405.819 553.229 401.815 562.645 401.906C586.127 402.149 583.028 404.302 583.788 379.522C584.942 342.853 583.423 306.123 583.697 269.424C583.758 259.87 581.115 254.137 572.093 250.012C554.14 241.793 541.23 228.326 534.729 209.309C532.025 201.423 528.562 199.149 519.48 203.031C512.584 206.003 503.41 204.305 495.33 203.546C493.234 203.364 489.862 198.785 490.014 196.389C490.591 186.804 485.396 175.946 496.211 168.06C498.367 166.483 497.152 160.326 497.487 156.292L494.388 155.776C493.507 158.081 492.596 160.387 491.29 163.784C487.918 156.929 487.462 151.985 495.542 151.712C504.382 151.409 513.313 152.683 522.153 152.288C525.646 152.137 531.205 150.044 532.116 147.527C540.257 124.658 554.778 108.765 578.016 100.424C588.101 96.7841 589.681 85.016 584.487 76.3416C581.145 70.7608 580.811 63.3603 578.776 55.2621H613.071C604.323 59.296 591.048 51.2888 587.16 67.7884C605.386 62.6323 622.063 57.8705 638.771 53.1693C640.229 52.775 641.717 52.4414 643.206 52.2897C659.852 50.4396 665.35 57.4459 659.913 73.4602C658.607 77.3425 657.392 81.2854 656.602 85.3193C654.992 93.5085 657.969 98.331 666.292 101.637C686.493 109.705 699.98 124.718 705.661 145.798C707.696 153.35 710.947 154.866 717.751 152.379C720.546 151.348 723.705 151.227 726.712 150.802C745.546 148.255 748.553 150.742 748.948 169.577C749.1 177.917 748.857 186.258 748.979 194.569C749.07 201.181 745.941 204.578 739.41 204.396C728.899 204.092 718.419 203.516 707.909 203.031C703.17 212.221 699.677 223.2 692.781 231.238C684.883 240.489 673.856 247.01 664.348 254.956C661.462 257.383 656.966 260.507 656.936 263.358C656.48 308.368 656.602 353.408 656.602 399.571L656.541 399.631ZM606.358 77.7367C596.972 91.7493 599.797 96.7235 618.296 102.759C614.317 94.4487 610.824 87.0784 606.358 77.7367Z" fill="white"/>
<path d="M203.554 403.582C202.744 397.342 206.59 396.269 211.506 396.269C219.083 396.298 226.832 395.427 234.206 396.675C238.804 397.429 244.356 400.39 246.814 404.134C250.14 409.241 252.135 415.51 246.207 421.924C243.373 425 243.055 431.211 242.997 436C242.563 467.024 242.679 467.053 211.448 466.995C169.894 466.879 128.34 466.299 86.7862 466.821C75.3639 466.966 50 464.5 50 453.5C50 442.5 50.5 430.689 50.5 418.122C53.0158 418.122 79.9617 418.122 84.1258 418.122C121.342 418.122 158.559 418.122 195.775 418.122C208.904 418.122 210.147 415.626 203.409 403.408L203.554 403.64V403.582Z" fill="white"/>
<path d="M357.219 167.036C359.227 159.394 363.244 158.27 369.723 162.48C378.493 168.218 387.574 173.466 396.287 178.801C398.211 161.989 385.565 157.116 375.749 149.936C366.781 143.39 361.321 126.637 366.158 116.573C367.969 112.825 373.457 110.893 378.832 107C378.238 110.576 378.267 113.69 377.644 113.834C366.158 116.458 370.713 125.455 371.024 132.116C371.137 134.307 374.928 137.018 377.588 138.258C383.472 141.026 390.29 142.093 395.722 145.524C417.647 159.337 439.119 173.927 460.931 187.941C466.702 191.632 469.955 195.669 470.662 203.138C475.076 250.053 480.083 296.94 484.892 343.798C488.655 380.304 492.446 416.809 496.124 453.315C496.887 460.841 499.632 463.811 507.751 466.493C517.794 469.809 527.045 478.027 534.542 486.13C540.285 492.33 535.306 500.029 526.422 500C451.17 499.654 375.918 499.135 300.638 498.76C278.742 498.645 256.845 498.933 234.948 498.875C230.252 498.875 224 500.346 224 492.474C224 483.333 231.101 486.418 235.769 486.39C257.609 486.188 279.477 486.303 301.374 485.611C280.354 484.659 259.306 483.708 236.363 482.67C246.293 466.58 259.108 468.079 269.01 469.348C267.341 464.994 263.691 460.178 264.116 455.766C266.464 431.141 270 406.602 272.687 382.005C274.159 368.481 274.243 354.784 276.082 341.318C276.818 336.012 280.665 331.168 282.957 326.41C281.882 324.276 278.855 321.104 279.024 318.105C279.845 304.206 281.542 290.337 283.013 275.602C286.691 277.245 289.067 278.283 292.349 279.754C294.952 257.464 297.328 236.126 300.016 214.845C300.582 210.376 301.94 205.906 303.467 201.638C305.419 196.275 307.909 191.113 310.031 186.211C313.935 194.372 319.989 189.124 326.439 185.087C336.567 178.772 346.978 172.918 357.275 166.863C346.893 175.657 336.51 184.452 323.921 195.064C350.655 209.828 377.05 219.978 404.718 226.696C405.284 225.514 405.878 224.361 406.444 223.179C402.907 220.756 399.399 218.334 395.637 215.739C404.888 207.982 410.008 220.699 416.968 220.064C416.968 216.748 416.062 213.288 417.137 210.635C419.768 204.176 417.081 200.917 412.045 197.544C401.182 190.248 390.941 181.944 379.907 174.937C373.089 170.611 366.894 162.999 357.105 166.949L357.219 167.036ZM371.024 227.475C371.675 225.976 372.326 224.447 373.005 222.948C366.866 219.459 361.01 215.191 354.503 212.654C343.441 208.328 332.069 204.781 320.668 201.581C317.754 200.773 313.454 201.436 311.021 203.195C302.024 209.77 303.835 219.978 305.193 228.917C305.73 232.377 311.388 237.221 315.066 237.567C323.129 238.346 332.521 242.037 338.179 230.705C342.762 221.506 350.882 220.295 360.557 224.88C363.754 226.408 367.545 226.639 371.053 227.446L371.024 227.475Z" fill="white"/>
<path d="M1140.5 727.465C1141.51 727.773 1145.43 730.434 1148.66 729.752C1165.16 726.299 1180.69 730.478 1195.96 735.207C1242.52 749.635 1288.83 764.833 1335.43 779.152C1344.6 781.967 1354.61 782.143 1366.23 783.837V734.503C1366.49 734.503 1366.74 734.459 1367 734.459C1366.58 737.89 1366.14 741.321 1365.72 744.753C1364.67 744.753 1363.61 744.709 1362.58 744.709C1362.58 729.533 1362.2 714.334 1362.73 699.158C1363.02 690.998 1364.98 682.904 1365.94 674.767C1366.69 668.388 1363.7 665.771 1357.14 665.243C1285.2 659.436 1213.3 653.234 1141.33 647.626C1135.22 647.142 1128.24 648.813 1122.76 651.628C1114.18 656.049 1106.2 656.401 1097.44 653.124C1071.81 643.513 1046.38 633.307 1020.37 624.905C1006.95 620.572 992.495 618.747 978.371 617.581C973.42 617.185 968.03 622.178 962.376 624.927C963.938 611.973 956.524 610.235 944.995 610.169C742.628 609.091 540.239 607.596 337.872 606.188C329.753 606.122 321.613 605.858 313.494 606.1C311.668 606.166 308.5 607.794 308.346 609.025C306.696 621.452 304.21 634.055 305.244 646.35C305.486 649.165 318.181 652.508 325.287 652.86C343.944 653.806 362.667 653.168 381.368 653.322C464.599 654.004 547.807 654.642 631.038 655.565C650.003 655.785 668.77 656.621 686.261 666.387C692.839 670.06 701.794 670.456 709.692 670.566C763.199 671.291 816.706 671.555 870.235 671.907C872.391 671.907 874.569 671.467 876.725 669.73H787.444V667.948C816.75 667.948 846.055 668.476 875.317 667.794C899.65 667.223 923.918 664.671 948.251 664.143C962.31 663.835 976.413 665.793 990.493 666.717C990.493 667.64 990.449 668.542 990.427 669.466H947.481C947.481 669.73 947.503 669.972 947.525 670.236C964.356 671.203 981.429 670.83 997.93 673.667C1006.88 675.206 1014.17 677.296 1022.81 672.369C1025.23 670.984 1031.39 676.922 1036.17 678.638C1038.81 679.583 1042.11 678.814 1045.1 678.638C1046.79 678.528 1048.53 677.538 1050.12 677.78C1081.97 682.816 1102.19 699.95 1107.17 732.898C1107.32 733.887 1108.2 734.767 1109.87 737.604C1119.4 734.459 1129.21 731.226 1140.5 727.509V727.465ZM1357.72 747.92C1347.07 746.072 1337.83 745.258 1329.07 742.729C1320.4 740.222 1312.22 735.977 1303.81 732.524C1292.7 727.971 1281.06 724.43 1270.63 718.667C1261.11 713.389 1252.07 706.416 1249.76 693.88C1263.19 697.047 1271.26 696.072 1273.96 690.954C1268.59 688.975 1263.31 687.017 1258.01 685.06C1258.4 683.806 1258.8 682.553 1259.22 681.299C1292.04 678.022 1324.52 680.309 1357.72 688.293V747.92ZM1154.4 718.425C1153.13 718.381 1151.83 718.315 1150.55 718.271C1145.45 706.68 1140.06 695.199 1135.48 683.41C1134.76 681.563 1137.59 678.352 1138.8 675.756C1141.33 677.604 1146.31 680.265 1146.02 681.167C1142.19 692.538 1152.05 698.169 1155.55 706.416C1156.93 709.672 1154.89 714.4 1154.42 718.447L1154.4 718.425ZM906.801 631.35C903.479 636.408 898.836 642.919 894.898 649.825C893.776 651.782 895.602 656.445 894.458 657.105C892.346 658.337 888.012 658.689 886.494 657.325C884.536 655.565 883.458 651.65 883.744 648.835C884.954 637.024 895.008 630.756 906.779 631.35H906.801Z" fill="black"/>
<path d="M112.502 853.465C111.49 853.773 107.574 856.434 104.34 855.752C87.8391 852.299 72.3062 856.478 57.0374 861.207C10.4828 875.635 -35.8297 890.833 -82.4283 905.152C-91.6028 907.967 -101.613 908.143 -113.23 909.837V860.503C-113.494 860.503 -113.736 860.459 -114 860.459C-113.582 863.89 -113.142 867.321 -112.724 870.753C-111.668 870.753 -110.612 870.709 -109.578 870.709C-109.578 855.533 -109.204 840.334 -109.732 825.158C-110.018 816.998 -111.976 808.904 -112.944 800.767C-113.692 794.388 -110.7 791.771 -104.143 791.243C-32.1995 785.436 39.7004 779.234 111.666 773.626C117.783 773.142 124.757 774.813 130.235 777.628C138.816 782.049 146.802 782.401 155.559 779.124C181.19 769.513 206.624 759.307 232.629 750.905C246.05 746.572 260.505 744.747 274.629 743.581C279.58 743.185 284.97 748.178 290.624 750.927C289.062 737.973 296.476 736.235 308.005 736.169C510.372 735.091 712.761 733.596 915.128 732.188C923.247 732.122 931.387 731.858 939.506 732.1C941.332 732.166 944.5 733.794 944.654 735.025C946.304 747.452 948.79 760.055 947.756 772.35C947.514 775.165 934.819 778.508 927.713 778.86C909.056 779.806 890.333 779.168 871.632 779.322C788.401 780.004 705.193 780.642 621.962 781.565C602.997 781.785 584.23 782.621 566.739 792.387C560.161 796.06 551.206 796.456 543.308 796.566C489.801 797.291 436.294 797.555 382.765 797.907C380.609 797.907 378.431 797.467 376.275 795.73H465.556V793.948C436.25 793.948 406.945 794.476 377.683 793.794C353.35 793.223 329.082 790.671 304.749 790.143C290.69 789.835 276.587 791.793 262.507 792.717C262.507 793.64 262.551 794.542 262.573 795.466H305.519C305.519 795.73 305.497 795.972 305.475 796.236C288.644 797.203 271.571 796.83 255.07 799.667C246.116 801.206 238.833 803.296 230.187 798.369C227.767 796.984 221.606 802.922 216.832 804.638C214.192 805.583 210.892 804.814 207.9 804.638C206.206 804.528 204.467 803.538 202.883 803.78C171.026 808.816 150.806 825.95 145.834 858.898C145.68 859.887 144.8 860.767 143.128 863.604C133.602 860.459 123.789 857.226 112.502 853.509V853.465ZM-104.715 873.92C-94.0669 872.072 -84.8264 871.258 -76.0699 868.729C-67.4014 866.222 -59.217 861.977 -50.8125 858.524C-39.7019 853.971 -28.0633 850.43 -17.6347 844.667C-8.1082 839.389 0.934286 832.416 3.24441 819.88C-10.191 823.047 -18.2581 822.072 -20.9569 816.954C-15.5886 814.975 -10.3083 813.017 -5.00603 811.06C-5.40205 809.806 -5.79807 808.553 -6.2161 807.299C-39.0419 804.022 -71.5157 806.309 -104.715 814.293V873.92ZM98.5976 844.425C99.8737 844.381 101.172 844.315 102.448 844.271C107.552 832.68 112.942 821.199 117.519 809.41C118.245 807.563 115.407 804.352 114.196 801.756C111.666 803.604 106.694 806.265 106.98 807.167C110.808 818.538 100.952 824.169 97.4536 832.416C96.0675 835.672 98.1136 840.4 98.5756 844.447L98.5976 844.425ZM346.199 757.35C349.521 762.408 354.164 768.919 358.102 775.825C359.224 777.782 357.398 782.445 358.542 783.105C360.654 784.337 364.988 784.689 366.506 783.325C368.464 781.565 369.542 777.65 369.256 774.835C368.046 763.024 357.992 756.756 346.221 757.35H346.199Z" fill="black"/>
<line x1="144" y1="551.5" x2="1129" y2="551.5" stroke="black"/>
<line x1="144" y1="889.5" x2="1129" y2="889.5" stroke="black"/>
<path d="M110.442 288.724C109.922 276.398 108.422 264.014 109.201 251.774C109.836 241.757 107.7 237.629 96.9363 237.34C85.5085 237.023 74.1095 234.54 62.7394 232.751C53.5337 231.307 49.1761 226.313 50.1284 216.325C51.3693 203.421 51.7734 190.431 52.0331 177.47C52.1774 170.455 55.3806 167.886 62.018 167.915C74.9753 168.001 87.9614 167.511 100.919 167.857C109.057 168.088 112.751 165.259 112.953 156.743C113.241 143.435 114.713 130.157 115.117 116.849C115.406 107.236 119.59 101.751 129.257 101.578C152.257 101.203 175.286 101.232 198.286 101.001C204.779 100.943 207.088 104.205 207.146 110.383C207.261 122.998 207.838 135.612 208.098 148.227C208.502 167.742 208.444 167.626 227.548 168.204C239.669 168.579 251.76 169.358 263.881 170.022C270.605 170.397 273.692 174.092 272.913 180.674C272.019 188.353 270.547 196.003 269.797 203.71C269.566 206.164 270.432 208.935 271.442 211.273C277.357 224.956 273 233.386 258.513 234.829C244.892 236.157 231.213 237.398 217.563 237.658C208.733 237.831 205.674 240.862 205.905 249.84C207.03 292.736 207.636 335.633 208.329 378.53C208.617 395.388 207.809 396.081 190.754 395.994C166.975 395.908 143.167 395.504 119.388 395.85C110.038 395.994 106.229 392.357 106.46 383.206C107.239 355.465 107.643 327.723 108.624 299.982C108.768 296.085 111.25 292.275 112.664 288.435C111.943 288.522 111.192 288.637 110.471 288.724H110.442Z" fill="white"/>
</g>
<defs>
<clipPath id="clip0_464_45">
<rect width="1280" height="1061" fill="white"/>
</clipPath>
</defs>
</svg>
