<svg width="1182" height="2591" viewBox="0 0 1182 2591" fill="none" xmlns="http://www.w3.org/2000/svg">
<path d="M0 1144H1182V2156.94L0 2470L0 1144Z" fill="white"/>
<path d="M262.223 986.642C262.782 975.729 264.142 964.796 263.722 953.943C263.002 935.435 257.503 916.268 260.883 898.679C263.762 883.729 252.864 871.977 257.623 857.986C263.222 841.457 266.962 824.248 273.28 808.039C277 798.485 287.018 790.95 289.257 781.356C293.476 763.208 293.756 744.18 296.376 725.613C297.716 716.159 300.615 706.925 303.554 694.433C295.916 680.902 298.395 652.061 310.433 640.329C322.871 628.197 337.168 631.494 350.565 636.591C359.043 639.809 361.883 637.231 364.802 630.335C368.162 622.38 368.802 612.447 379.12 609.049C379.879 608.789 380.819 607.49 380.819 606.691C380.759 594.918 391.877 590.541 396.976 582.207C402.255 573.592 408.294 565.438 413.393 556.703C415.812 552.566 416.492 547.449 418.452 542.992C420.251 538.915 422.291 532.259 424.991 531.84C430.15 531.06 435.968 533.599 441.287 535.397C443.547 536.157 445.287 538.495 447.766 540.554C444.647 543.992 442.007 547.41 438.888 550.268C426.87 561.28 423.331 577.23 415.332 590.581C413.573 593.519 414.913 598.156 414.113 601.854C413.073 606.631 411.313 611.248 409.814 616.104C417.492 616.104 425.41 616.884 433.049 615.745C436.408 615.245 439.188 610.808 441.947 608.409C444.247 608.29 447.066 608.669 449.506 607.87C451.585 607.19 452.985 604.612 455.065 603.812C459.324 602.174 463.843 601.174 468.262 599.915C467.902 606.271 470.262 611.947 465.263 618.903C456.264 631.474 452.385 646.445 460.284 662.974C465.983 652.001 468.902 638.11 477.38 632.154C487.118 625.318 493.477 617.204 495.137 607.59C498.076 590.681 508.094 572.213 488.478 557.063C481.2 551.447 477.76 541.134 471.481 533.918C460.963 521.826 449.406 510.654 438.648 498.741C434.269 493.905 430.969 488.108 427.03 482.872C419.972 473.518 412.833 464.224 405.674 454.93C400.075 447.635 394.737 440.1 388.678 433.204C382.579 426.269 375.18 420.453 369.321 413.357C364.242 407.221 360.703 399.846 356.124 393.291C351.665 386.895 346.826 380.759 342.027 374.603C332.229 362.051 324.07 347.501 312.033 337.687C300.835 328.553 292.197 318.14 283.818 306.967C278.239 299.512 272.78 291.977 266.962 284.722C252.284 266.374 237.567 248.046 222.61 229.918C217.991 224.301 212.232 219.624 207.573 214.048C198.495 203.155 190.976 190.663 180.679 181.13C169.621 170.876 160.922 159.144 152.344 147.112C132.988 119.99 113.952 92.6277 94.4154 65.6454C88.0967 56.9111 80.5182 49.0762 73.6795 40.6817C71 37.3839 69.0404 33.4665 66.281 30.2486C62.2218 25.5317 56.6029 21.7941 53.7634 16.5176C51.7438 12.7401 51.2039 5.54476 53.5035 2.64666C57.6826 -2.62988 63.0416 0.907806 66.9408 5.22498C67.6207 5.96449 68.5405 6.64405 68.8205 7.52347C75.1592 27.5503 93.4756 23.1932 107.933 27.0906C130.968 33.2666 153.744 40.4419 176.799 46.5579C194.096 51.1549 211.552 55.3921 229.149 58.61C245.826 61.648 262.902 62.5274 279.539 65.6853C285.178 66.7646 290.697 71.2017 295.116 75.339C303.574 83.2538 312.673 84.8727 324.11 79.936C327.23 78.5969 334.208 78.6169 334.468 79.4963C336.468 86.1719 341.507 82.6142 344.926 83.034C360.703 84.9727 376.62 85.972 392.357 88.1906C411.693 90.9088 457 86.5 457 118.5C476.646 125.843 477.607 127.145 482.646 130.743C494.184 138.958 493.284 152.329 497.143 163.662C500.943 174.774 504.342 186.067 507.241 197.459C509.281 205.494 510.081 213.849 511.62 222.003C511.96 223.802 512.7 226.42 514 227C524.838 231.837 511.881 232.184 516 239C520.573 246.567 515.56 256.6 514 257C509.861 258.039 507.239 260.338 503.5 259.198C500.101 258.159 495.599 265.314 492.5 262.756C489.041 259.878 474.961 265.834 471.701 262.756C465.903 257.32 468.839 268.113 463 262.756C451.842 252.543 460.024 264 434.5 264C433.56 262.721 418.88 267.339 417.5 265.5C416.02 268.958 413.373 267.5 407 267.5C394 279 399.459 267.867 393.5 278C385.482 291.651 369.681 286.121 356.864 294.515C349.365 299.432 343.007 306.447 337.108 313.343C327.01 325.155 328.35 333.59 339.647 344.223C344.586 348.86 348.226 354.876 352.445 360.252C353.665 361.791 354.684 364.409 356.124 364.689C367.302 366.808 368.302 376.801 372.321 384.576C375.54 390.812 379.18 397.008 385.578 395.189C389.118 401.465 391.457 407.121 395.096 411.738C410.233 430.906 425.77 449.714 441.107 468.721C445.647 474.337 448.846 482.832 454.645 485.25C465.143 489.607 464.643 499.501 469.682 506.396C475.521 514.371 482.779 521.267 489.038 528.962C496.237 537.776 502.575 547.31 510.054 555.864C517.492 564.358 526.131 571.793 533.689 580.188C536.469 583.266 537.688 587.743 539.608 591.581C539.748 591.88 539.708 592.36 539.908 592.5C554.165 601.834 557.165 620.861 571.882 629.636C574.801 631.374 579.02 631.235 582.66 631.334C593.477 631.614 604.715 629.795 615.033 632.134C628.051 635.092 636.789 644.626 639.608 658.357C643.228 675.965 648.527 693.714 635.889 709.463C642.248 716.719 648.087 722.994 653.466 729.65C660.304 738.084 666.363 747.179 673.582 755.253C676.921 758.991 682.18 760.989 686.559 763.788C687.339 762.988 688.119 762.189 688.899 761.389C689.339 764.927 688.979 768.804 690.378 771.882C692.278 776.02 695.977 783.015 698.197 782.755C713.634 780.956 719.713 793.648 728.211 801.523C736.569 809.258 734.67 809.717 741.248 800.444C745.728 794.128 752.966 789.711 759.245 784.794C765.484 779.897 771.982 775.3 778.581 770.883C780.721 769.464 783.56 769.104 786.04 768.145C789.499 766.826 792.918 765.387 796.378 764.067C798.697 763.188 801.097 762.528 803.376 761.569C806.336 760.33 809.155 758.771 812.135 757.572C813.634 756.972 815.334 756.652 816.954 756.552C819.453 756.372 823.472 757.512 824.272 756.332C831.831 745.18 843.348 750.636 852.787 750.157C858.046 749.877 863.524 755.953 869.083 758.791C876.202 762.448 882.581 768.225 888.759 755.693C894.398 744.28 926.652 733.887 937.29 739.983C950.207 747.378 955.886 760.989 956.246 775.7C956.526 786.593 954.647 797.545 953.987 808.498C953.787 811.716 953.507 815.554 954.987 818.132C962.705 831.503 958.666 844.495 954.727 857.666C952.227 866.001 945.648 873.736 955.047 882.93C961.445 889.185 966.564 896.141 976.182 897.26C976.722 897.32 977.162 898.099 976.622 897.62V942.191C976.362 942.37 973.703 944.109 973.183 944.449C972.763 949.446 972.723 952.384 972.223 955.262C969.864 968.953 967.304 982.624 965.085 996.355C964.865 997.654 966.024 999.833 967.204 1000.57C974.923 1005.41 982.821 1009.97 990.66 1014.6C1003.92 1022.46 1017.57 1029.83 1021.35 1046.82C1023.25 1055.34 1024.55 1064.85 1034.07 1062.67C1039.21 1072.71 1043.09 1081.12 1047.71 1089.09C1057.45 1105.94 1071.76 1120.17 1076.46 1139.9C1076.82 1141.44 1077.64 1143.48 1078.86 1144.12C1086.08 1147.96 1088.26 1153.65 1087.18 1161.59C1086.78 1164.52 1088.78 1167.8 1090 1172H100.454C99.8744 1171.3 99.3145 1170.6 98.7346 1169.88C101.874 1166.64 104.753 1163.13 108.173 1160.25C117.871 1152.05 128.169 1144.5 137.467 1135.86C141.086 1132.51 141.826 1126.03 145.425 1122.61C150.964 1117.36 157.963 1113.68 164.122 1109.04C171.7 1103.34 179.019 1097.29 186.557 1091.53C191.096 1088.07 195.816 1084.88 201.674 1080.68C213.712 1082.56 214.912 1081.62 223.15 1067.73C229.689 1056.7 240.207 1046.88 243.066 1035.11C246.306 1021.8 255.604 1013.04 260.283 1001.41C262.063 996.955 261.663 991.638 262.262 986.701L262.243 986.721L262.223 986.642ZM160.283 127.065C161.202 135.4 169.041 135.699 174.24 139.097C170.96 145.733 172.62 149.89 180.239 151.089C183.478 156.126 186.757 161.163 189.977 166.219C191.556 168.738 192.556 171.816 194.616 173.794C201.414 180.31 208.773 185.427 214.152 194.241C223.45 209.451 236.428 222.443 247.925 236.293C250.865 239.851 253.984 243.269 257.203 246.567C261.363 250.844 266.022 254.681 269.901 259.198C276.88 267.333 283.438 275.848 290.177 284.202C294.396 273.229 289.057 268.832 283.178 262.756C276.28 255.641 274.22 244.068 268.061 235.954C251.025 213.488 233.088 191.703 215.132 169.957C211.732 165.84 206.593 163.181 203.674 160.923C201.894 156.985 201.354 153.308 199.415 152.229C197.655 151.249 194.336 153.128 192.696 153.508C190.457 150.59 188.337 147.831 186.237 145.093C182.878 139.797 179.519 134.48 176.159 129.184C172.2 127.145 168.241 125.106 164.262 123.068C163.202 117.991 166.921 110.836 158.163 109.157C152.864 103.181 147.565 97.1847 142.246 91.2086C139.367 87.3112 136.867 83.034 133.448 79.6962C132.088 78.357 128.709 79.0366 126.269 78.8167C126.309 81.1952 125.389 84.3131 126.569 85.8121C130.748 91.1686 135.647 95.9855 140.286 101.002C143.606 105.04 146.925 109.077 150.244 113.114C153.584 117.771 156.943 122.428 160.283 127.085V127.065ZM598.816 904.196C605.195 904.196 608.175 903.296 610.014 904.355C617.793 908.832 625.531 913.509 632.67 918.946C636.369 921.764 639.128 926.081 641.688 930.099C649.267 941.991 654.905 955.562 664.244 965.775C685.219 988.66 689.539 1003.65 677.541 1030.05C675.581 1034.35 669.083 1036.63 667.303 1040.93C660.404 1057.63 645.847 1065.57 631.67 1074.12C630.03 1075.12 627.971 1075.42 626.111 1076.06C626.991 1077.2 627.851 1078.34 628.731 1079.5C641.368 1083.36 652.586 1075.88 664.504 1073.96C665.323 1073.82 666.243 1072.84 666.703 1072.01C671.322 1063.51 679.541 1057.52 680.9 1046.46C681.7 1040.09 687.959 1034.29 692.118 1028.49C697.617 1020.8 706.535 1014.06 708.495 1005.65C711.614 992.198 710.055 977.587 716.293 964.616C720.053 956.761 723.192 947.147 729.631 942.331C747.727 928.839 752.406 908.773 759.105 889.545C759.825 887.507 756.745 881.81 755.726 881.87C749.147 882.37 749.687 877.013 747.747 873.596C745.488 869.618 743.508 865.241 740.389 862.043C733.57 855.088 724.892 849.671 719.153 841.996C711.754 832.083 702.756 830.344 691.458 830.364C682.7 830.364 673.862 827.946 665.183 826.047C659.604 824.828 654.366 822.049 648.767 821.01C643.588 820.051 638.129 820.151 632.83 820.43C627.251 820.73 620.792 820.271 616.433 822.949C612.614 825.307 609.874 831.283 608.994 836.1C607.515 844.195 608.035 852.629 607.415 860.904C606.795 869.318 606.295 877.813 604.795 886.087C603.755 891.884 601.136 897.4 598.856 904.156L598.816 904.196ZM480.6 1110.48C481.439 1111.28 482.279 1112.08 483.119 1112.88C485.919 1113.32 488.818 1113.38 491.478 1114.24C498.516 1116.52 518.992 1110.96 520.712 1104.36C522.411 1097.83 526.311 1098.27 529.95 1098.77C547.367 1101.21 557.904 1089.25 568.642 1079.52C576.621 1072.31 583.779 1063.55 583 1050.42C582.56 1043.12 583.339 1034.37 593.657 1030.31C598.716 1028.33 601.716 1021.14 606.155 1015.68C601.736 1014.68 598.456 1014.82 596.317 1013.32C581.76 1003.05 567.683 992.078 552.965 982.024C543.707 975.709 538.288 978.567 536.389 989.859C534.509 1000.97 533.489 1012.26 531.13 1023.26C529.83 1029.27 527.011 1035.11 524.011 1040.55C518.672 1050.26 512.133 1059.33 507.114 1069.19C502.835 1077.6 500.036 1086.78 496.457 1095.55C495.997 1096.67 494.837 1097.53 493.877 1098.39C489.478 1102.43 485.019 1106.44 480.6 1110.46V1110.48ZM741.348 1042.46C750.147 1046.88 756.985 1051 764.324 1053.84C774.002 1057.58 785.4 1056.18 793.938 1063.81C795.418 1065.13 798.357 1065.21 800.617 1065.23C815.894 1065.39 827.651 1056.06 840.669 1050.16C841.549 1049.76 842.829 1049.12 842.989 1048.4C845.608 1035.37 855.086 1038.19 863.904 1039.07C870.143 1039.69 875.842 1037.09 873.982 1030.53C872.383 1024.82 867.164 1020.02 863.205 1015.1C861.945 1013.52 859.125 1013.22 857.766 1011.69C855.646 1009.27 854.186 1006.27 851.707 1002.37C848.167 985.442 829.851 978.547 821.953 965.036C807.935 976.528 794.758 987.021 782 997.974C778.741 1000.77 776.721 1005.01 774.222 1008.65C772.642 1010.95 771.643 1013.8 769.703 1015.7C760.985 1024.2 752.026 1032.43 741.328 1042.46H741.348ZM532.409 614.406C528.03 623.999 523.811 632.893 519.912 641.948C515.673 651.801 511.534 661.735 507.714 671.768C502.655 685.059 498.016 698.53 492.917 711.802C492.417 713.081 489.598 714.56 488.258 714.26C481.339 712.641 480.48 718.237 480.48 721.895C480.48 728.731 482.079 735.566 483.159 742.382C484.099 748.218 486.259 754.054 486.079 759.83C485.699 771.443 483.999 782.995 482.999 794.587C482.159 804.281 483.259 813.475 491.857 823.089C492.877 817.672 493.337 814.315 494.157 811.037C495.437 805.94 496.876 800.903 498.376 795.867C500.236 789.671 504.115 783.415 503.795 777.359C502.395 750.236 506.555 725.173 526.211 704.686C530.79 704.686 536.089 705.426 541.048 704.427C544.567 703.727 547.966 701.029 550.566 698.37C551.186 697.751 548.766 693.254 546.927 691.335C541.888 686.099 541.468 682.141 548.106 677.664C550.746 675.885 551.846 671.808 553.625 668.77C547.287 665.332 552.306 662.634 554.405 660.156C561.124 652.201 560.964 644.506 553.705 636.931C547.187 630.115 540.728 623.24 532.409 614.426V614.406ZM869.623 991.858C870.183 991.618 870.743 991.378 871.303 991.119C872.703 994.137 873.603 997.554 875.602 1000.07C878.182 1003.33 881.981 1005.61 884.66 1008.79C896.058 1022.22 896.558 1023.2 910.475 1014.34C923.093 1006.33 937.57 998.134 932.131 978.387C931.031 974.37 932.011 969.773 931.971 965.455C931.811 951.185 929.232 949.566 915.994 954.742C908.396 957.7 900.797 961.398 892.879 962.597C880.601 964.436 868.024 964.296 855.606 965.315C853.706 965.475 851.947 967.394 848.627 969.413C856.206 977.527 862.925 984.703 869.623 991.878V991.858ZM453.225 1027.35C452.285 1026.24 451.325 1025.1 450.386 1023.98C442.067 1028.81 431.649 1031.97 425.99 1038.97C420.431 1045.82 413.953 1049.76 406.974 1053.76C398.316 1058.69 389.418 1063.19 380.619 1067.89L380.039 1070.27C387.718 1071.05 395.696 1070.81 403.015 1072.88C410.773 1075.08 417.912 1079.46 426.21 1083.32C426.67 1079.42 425.95 1074.56 427.93 1071.41C430.21 1067.79 435.808 1066.29 438.228 1062.71C440.727 1059.01 441.127 1053.92 442.467 1049.44C442.667 1049.6 442.867 1049.76 443.067 1049.94C446.466 1042.42 449.866 1034.91 453.265 1027.39L453.225 1027.35ZM763.124 857.966C764.444 862.263 765.404 865.401 766.364 868.519C769.443 866.96 773.562 866.18 775.422 863.702C781.98 854.928 787.699 845.534 793.898 836.48C797.437 831.323 799.437 825.047 793.998 821.49C790.399 819.131 783.34 819.451 779.021 821.31C771.003 824.748 764.004 830.524 756.246 834.701C748.887 838.659 748.447 844.275 752.666 849.951C755.386 853.629 760.165 855.807 763.124 857.986V857.966ZM381.859 676.725C376.3 684.659 370.421 693.074 364.542 701.469C365.762 702.748 366.982 704.027 368.202 705.306C376.56 700.629 384.898 695.972 390.777 692.674C387.118 686.119 384.698 681.781 381.859 676.705V676.725ZM436.028 887.287C433.969 903.196 438.048 910.272 452.545 916.467C451.625 909.512 452.165 902.317 449.446 896.681C447.486 892.643 441.187 890.704 436.028 887.287ZM614.333 723.794C613.574 724.713 612.814 725.633 612.034 726.552C618.453 732.808 624.851 739.084 631.27 745.34C633.37 729.63 626.351 722.375 614.333 723.794ZM312.953 979.566C318.591 977.727 327.37 981.165 326.33 970.792C326.07 968.233 322.851 963.697 321.611 963.896C313.452 965.216 311.633 971.172 312.953 979.566ZM327.89 1045.32C326.27 1044.6 324.63 1043.86 323.011 1043.14C318.911 1048.9 314.832 1054.68 310.393 1060.91C315.212 1062.09 318.491 1062.89 322.171 1063.79C324.01 1057.87 325.97 1051.6 327.91 1045.32H327.89ZM909.236 883.889C910.615 884.029 911.995 884.169 913.395 884.309C915.754 880.191 918.134 876.054 920.493 871.937L917.914 868.919C914.355 870.398 909.475 870.977 907.636 873.636C906.216 875.714 908.576 880.391 909.236 883.909V883.889Z" fill="white"/>
<g style="mix-blend-mode:difference">
<path d="M299.454 1280C297.808 1279.53 295.478 1278.06 294.579 1278.68C281.272 1287.66 267.349 1292.39 250.982 1284.02C250.229 1285.41 249.437 1286.79 248.684 1288.18C251.167 1292.15 252.915 1298.76 256.183 1299.61C267.627 1302.68 266.407 1308.82 264.456 1318C262.288 1328.13 262.851 1338.9 261.934 1354.3C249.33 1342.79 240.008 1334.29 229.597 1324.76C227.07 1325.69 221.59 1326.08 218.9 1329.01C211.489 1337.14 203.596 1336.95 194.261 1333.86C191.734 1333.02 188.028 1334.52 185.445 1335.98C184.703 1336.42 185.202 1341.97 186.38 1342.52C208.937 1352.9 194.405 1371.15 195.397 1385.83C195.772 1391.6 193.466 1397.58 192.377 1403.45C193.653 1404.14 194.921 1404.87 196.196 1405.56C199.714 1399.73 203.232 1393.9 207.605 1386.57C212.783 1390.26 217.81 1393.87 225.32 1399.23C208.67 1409.98 194.195 1419.69 179.362 1428.88C156.549 1443.03 133.418 1456.67 110.572 1470.78C93.5995 1481.26 93.0656 1493.27 109.777 1504.67C128.393 1517.38 149.642 1519 171.061 1514.59C206.296 1507.37 241.302 1499.15 276.443 1491.54C341.265 1477.5 406.051 1463.2 471.069 1450.1C480.16 1448.27 492.591 1449.59 499.907 1454.66C535.704 1479.36 570.26 1505.84 607.915 1533.65C590.414 1543.87 575.361 1552.69 560.315 1561.46C548.468 1568.35 536.238 1574.64 524.976 1582.38C520.575 1585.41 515.411 1591.88 515.885 1596.23C516.355 1600.82 522.626 1607.52 527.256 1608.37C538.391 1610.44 550.553 1611.87 561.494 1609.64C592.742 1603.21 623.749 1595.41 654.515 1586.91C668.006 1583.17 678.711 1584 689.145 1594.07C696.36 1601.03 705.685 1605.73 713.646 1612C725.278 1621.18 737.225 1627.78 755.218 1619.14C747.947 1601.8 740.363 1583.7 731.948 1563.63C756.139 1552.96 780.028 1542.35 803.936 1531.87C821.592 1524.16 839.705 1517.32 856.846 1508.6C862.815 1505.57 870.782 1497.34 870.08 1492.67C869.133 1486.42 861.402 1477.8 855.253 1476.45C843.897 1474.01 831.303 1474.69 819.619 1476.7C793.319 1481.16 767.257 1487.23 740.121 1492.86C739.926 1478.77 741.221 1466 739.189 1453.81C737.26 1442.17 733.612 1430.01 727.581 1420.01C720.988 1409.04 711.102 1409.81 702.584 1419.67C695.962 1427.32 690.445 1435.93 683.516 1443.23C670.828 1456.66 656.578 1460.26 640.974 1451.13C618.474 1437.99 597.305 1422.58 572.392 1405.98C596.837 1390.6 616.783 1378.1 636.672 1365.47C737.253 1301.75 838.16 1238.51 937.968 1173.61C950.838 1165.22 960.409 1149.23 967.262 1134.76C975.213 1117.93 965.625 1102.85 947.645 1096.96C929.585 1091.05 912.576 1095.49 895.771 1101.96C811.101 1134.42 726.219 1166.48 641.873 1199.87C626.234 1206.06 617.194 1202.94 609.232 1189.77C606.608 1185.44 603.668 1181.26 600.429 1177.35C582.007 1155.14 582.065 1155.27 601.691 1132.93C605.038 1129.13 607.209 1124.33 609.919 1119.96C608.805 1118.84 607.69 1117.72 606.584 1116.57C602.94 1119.07 598.917 1121.18 595.678 1124.17C586.763 1132.39 579.001 1142.19 569.241 1149.18C555.477 1159.06 542.412 1173.41 522.087 1164.35C520.372 1163.58 517.106 1166.28 510.749 1168.94C520.986 1173.4 527.979 1176.43 535.044 1179.52C535.431 1197.02 536.376 1214.63 536.054 1232.17C535.793 1246.05 522.822 1246.53 513.881 1248.88C509.589 1249.98 502.483 1245.11 498.391 1241.13C488.546 1231.66 480.334 1220.52 470.34 1211.18C462.806 1204.17 463.286 1199.14 470.281 1192.58C475.429 1187.75 480.042 1182.25 484.271 1176.59C486.193 1174.01 486.596 1170.29 487.722 1167.11C486.508 1166.3 485.288 1165.54 484.074 1164.74C480.534 1167.8 476.946 1170.89 473.406 1173.95C460.425 1185.18 447.548 1196.51 434.437 1207.54C431.888 1209.71 428.115 1212.69 425.481 1212.2C401.207 1207.74 376.024 1210.63 354.269 1191.47C341.565 1180.28 320.67 1177.19 302.809 1173.54C292.19 1171.37 285.185 1179.53 286.063 1191.71C286.567 1198.79 287.231 1205.89 286.987 1212.99C286.878 1216.03 284.714 1219.02 282.557 1224.19C287.946 1229.86 296.738 1235.21 291.526 1249.74C288.621 1257.83 296.518 1269.79 299.534 1280.01C306.483 1274.16 314.406 1269.06 322.176 1277.03C334.735 1289.89 346.227 1303.84 358.166 1317.37C352.29 1325.91 347.732 1325.1 341.054 1318.37C327.763 1305 313.412 1292.67 299.509 1279.93L299.454 1280Z" fill="white"/>
</g>
<rect x="74.0464" y="2331.73" width="175" height="261.432" transform="rotate(-11.6377 74.0464 2331.73)" fill="white"/>
<rect x="254.863" y="2400.83" width="160.287" height="122.291" transform="rotate(-10.0672 254.863 2400.83)" fill="white"/>
<rect x="462.688" y="2464.01" width="168.842" height="128.818" transform="rotate(-10.0672 462.688 2464.01)" fill="white"/>
<rect x="848.865" y="2156.61" width="149.431" height="238.657" transform="rotate(9.15545 848.865 2156.61)" fill="white"/>
<rect x="843.095" y="2441.7" width="197.193" height="154.332" transform="rotate(-23.7016 843.095 2441.7)" fill="white"/>
<rect x="700.597" y="2349.08" width="131.257" height="174.382" transform="rotate(-10.0672 700.597 2349.08)" fill="white"/>
<rect x="434.024" y="2271.69" width="122.932" height="272.653" transform="rotate(14.4927 434.024 2271.69)" fill="white"/>
<rect x="615.186" y="2248.88" width="139.978" height="283.7" transform="rotate(5.19203 615.186 2248.88)" fill="white"/>
</svg>
