<svg width="1423" height="1329" viewBox="0 0 1423 1329" fill="none" xmlns="http://www.w3.org/2000/svg">
<path d="M1420.57 1017.83C1428.81 982.891 1403.37 960.869 1389.75 933.822C1378.6 911.659 1371.34 887.25 1364.66 863.217C1358.15 839.696 1353.78 815.461 1350.04 791.289C1348.75 782.975 1349.75 772.476 1353.85 765.412C1372.48 733.357 1388.63 701.214 1377.18 662.57C1375.31 656.291 1372.42 650.33 1366.33 644.935C1366.22 647.904 1366.05 650.846 1365.91 654.259C1365.34 654.091 1364.09 654.093 1363.9 653.633C1354.4 630.524 1339.42 612.926 1321.35 594.735C1288.38 561.594 1254.83 528.806 1222.56 494.844C1208.04 479.562 1194.8 463.145 1180.51 447.66C1160.77 426.191 1140.61 405.157 1119.8 383.028C1117.29 386.186 1113.38 391.116 1107.49 398.523C1094.61 373.706 1088.07 349.155 1059.9 334.979C1036.55 323.268 1021.5 295.072 1002.8 274.184C1000.86 275.137 998.895 276.051 996.946 277.004C996.96 282.309 996.922 287.587 996.949 294.873C992.025 295.287 986.383 295.751 979.238 296.383C983.219 272.178 979.164 257.515 956.569 242.807C915.576 216.054 880.723 180.048 841.564 150.176C817.719 132.017 790.58 118.252 765.022 102.353C716.135 71.8899 667.597 40.8858 618.279 11.1179C608.537 5.22139 595.966 3.96255 584.715 0.565512C583.39 2.27348 582.118 4.00849 580.793 5.71645C583.587 12.1829 585.55 19.1677 589.269 25.0003C610.72 58.8843 633.53 91.9994 653.952 126.463C668.354 150.762 678.785 177.421 692.843 202C710.241 232.443 728.347 262.665 748.228 291.514C771.875 325.792 796.43 359.658 823.64 391.098C830.309 398.773 848.728 397.043 861.89 398.118C873.15 399.052 886.2 391.183 896.347 408.348C880.969 415.26 866.774 421.673 848.398 429.908C871.973 443.878 894.064 466.383 918.001 468.499C942.745 470.709 940.136 478.145 962.231 470.477C961.615 471.273 965.348 465.144 960.735 470.986C964.812 472.563 978.682 493.735 994.013 462.144C986.56 467.878 979.852 473.51 972.726 478.495C954.414 491.228 950.417 507.352 960.735 526.867C989.949 520.561 1020.05 516.266 1037.9 488.34C1043.56 494.301 969.06 474.631 972.726 478.495C939.7 514.392 981.848 513.59 960.804 526.673C959.876 528.818 957.719 532.426 958.257 532.906C963.782 537.743 969.787 542.043 974.331 550.381C964.061 547.498 953.802 544.654 943.441 541.757C949.955 560.703 950.377 558.456 981.365 564.071C1003.1 567.996 1026.22 575.506 1043.71 588.264C1056.4 597.515 1060.84 617.972 1068.92 633.365C1080.49 624.49 1090.19 628.157 1094.66 646.66C1097.99 660.383 1104.55 661.748 1117.13 665.379C1128.71 668.717 1137.27 685.383 1145.38 697.4C1155.7 712.744 1165.07 727.991 1187.12 724.871C1184.41 746.781 1203.68 766.885 1232.43 771.427C1228.91 802.223 1259.92 779.126 1267.87 795.206C1261.51 808.456 1251.88 814.396 1235.61 808.765C1229.95 806.818 1221.57 806.54 1216.81 809.407C1200.71 819.002 1185.54 815.49 1176.99 802.188C1165.96 784.992 1150.49 779.976 1136.24 787.873C1126.86 793.089 1124.05 810.239 1118.43 822.135C1117.94 823.194 1118.52 824.782 1118.78 828.802C1132.66 828.574 1146.59 828.373 1159.47 828.152C1146.63 879.596 1133.1 886.361 1106.5 869.752L1106.66 869.833C1090.2 882.432 1081.84 899.932 1072.41 918.154C1061.21 939.861 1042.56 957.722 1027.08 977.314C1020.16 959.572 1018.25 944.155 1009.75 934.633C983.655 905.391 982.985 868.349 973.649 833.708C968.08 813.086 971.696 795.599 982.709 777.877C987.972 769.415 990.395 758.904 992.61 748.976C1000.1 715.389 972.56 698.814 955.376 678.75C925.164 643.498 891.597 611.062 859.846 577.11C843.639 559.762 828.694 541.201 812.101 524.276C808.751 520.875 800.376 522.408 796.592 521.905C771.196 495.035 745.621 468.006 718.679 439.503C713.392 445.814 710.109 449.687 704.541 456.344C701.801 410.452 663.253 397.353 637.014 377.61C578.599 333.629 515.473 295.866 453.803 256.267C441.751 248.502 427.628 243.928 414.472 237.888C412.885 239.721 411.285 241.515 409.658 243.36C413.713 251.376 417.32 259.618 421.916 267.292C450.865 315.801 479.747 364.374 509.238 412.541C526.915 441.387 542.874 472.063 565.099 497.073C579.669 513.463 593.396 542.245 626.097 528.982C628.24 528.097 631.887 530.931 639.317 533.707C627.008 541.042 618.077 546.331 607.365 552.694C622.508 562.474 635.886 576.431 651.545 579.834C667.164 583.25 685.102 576.102 701.737 573.633C694.672 582.829 685.876 591.184 681.204 601.403C676.859 610.873 682.066 620.645 693.816 618.577C706.835 616.286 719.319 610.623 731.725 605.674C737.836 603.25 743.249 599.145 752.416 593.782C743.914 619.138 705.323 639.548 676.92 640.422C685.709 644.371 694.253 650.857 703.362 651.815C724.587 653.957 740.119 662.494 752.841 680.021C763.455 694.667 775.603 710.216 790.748 719.175C815.007 733.537 826.175 757.851 844.341 776.357C859.286 791.595 882.327 798.869 901.684 809.838C904.83 811.619 909.944 814.168 909.952 816.41C909.979 819.682 906.594 825.443 904.031 825.811C888.024 828.213 871.912 830.001 855.759 830.55C852.04 830.674 847.019 826.068 844.511 822.318C837.401 811.845 827.319 805.968 816.735 812.463C808.975 817.214 804.88 827.901 797.293 838.469C810.536 842.022 818.267 844.1 827.087 846.485C828.593 862.116 821.832 873.116 807.302 877.346C804.928 878.043 799.058 866.838 796.162 862.951C775.607 893.835 753.214 927.409 730.86 960.97C728.735 960.252 726.599 959.493 724.474 958.775C733.124 937.214 717.182 923.626 710.785 906.715C700.051 878.251 692.351 848.581 683.981 819.25C683.066 816.039 685.831 811.335 687.764 807.841C714.934 758.706 698.868 754.825 673.727 724.897C640.775 685.708 603.98 649.704 568.363 612.771C565.551 609.849 558.874 610.594 550.496 608.934C545.553 604.993 547.411 582.702 526.721 595.846C523.376 575.566 518.841 557.427 492.813 555.531C487.553 555.143 484.646 540.424 478.179 535.75C431.031 501.723 383.267 468.492 335.636 435.133C325.526 428.057 315.283 421.108 304.633 414.933C296.872 410.404 288.368 407.23 280.188 403.435C278.778 404.868 277.407 406.288 275.985 407.682C278.464 414.246 280.006 421.405 283.634 427.223C316.565 480.188 349.785 532.976 383.138 585.637C395.154 604.637 409.283 620.862 439.704 615.518C431.727 624.006 427.307 628.665 419.131 637.344C432.781 643.446 444.398 652.168 456.546 653.041C468.213 653.891 463.302 666.854 478.179 662.214C471.453 679.42 455.44 666.249 480.389 689.33C493.487 681.619 488.509 706.798 501.608 699.087C502.875 701.627 502.03 684.028 503.309 686.607C490.556 692.657 498.059 685.891 485.318 691.98C480.705 693.807 476.041 695.607 471.428 697.434C509.208 701.837 528.385 730.647 552.345 754.295C577.928 779.552 607.356 800.934 634.628 824.543C637.231 826.795 636.445 832.997 637.883 840.793C619.363 829.045 596.186 842.662 582.493 822.156C582.188 821.733 563.002 829.314 562.249 834.513C557.422 868.608 532.676 890.484 517.841 918.247C515.505 918.371 513.168 918.495 510.871 918.608C502.588 897.451 492.64 876.77 486.743 854.955C483.775 844.054 486.089 830.426 489.931 819.343C496.111 801.358 496.107 786.252 482.015 772.087C450.187 740.101 420.131 706.182 386.836 675.862C350.223 642.52 311.493 611.392 272.357 581.039C250.766 564.291 226.487 550.972 203.21 536.434C198.805 533.664 193.456 532.44 182.653 528.127C187.323 539.36 189.148 546.043 192.609 551.74C215.111 588.577 237.029 625.898 261.288 661.582C269.348 673.442 283.752 680.992 296.853 691.841C297.414 691.148 294.593 694.704 288.538 702.29C304.835 707.049 318.902 711.165 332.204 715.045C320.365 736.348 324.24 740.19 349.449 753.996C367.419 763.844 381.184 781.392 396.496 795.868C412.537 811.022 428.18 826.56 448.512 846.333C433.748 843.168 423.057 840.459 412.242 838.739C406.795 837.891 401.091 838.85 395.521 838.991C396.821 843.851 398.37 848.677 399.303 853.609C400.2 858.423 400.494 863.381 396.932 868.852L393.324 857.287C381.447 873.897 370.615 889.016 358.095 906.475C341.409 880.946 329.396 858.492 338.736 828.342C341.575 819.169 336.08 803.488 328.953 795.869C304.725 769.974 276.606 747.666 252.655 721.554C217.865 683.672 175.431 656.591 132.321 630.11C129.55 628.428 126.162 627.672 121.503 625.887C121.193 629.739 119.907 632.817 120.916 634.531C142.624 670.622 159.219 710.121 193.707 737.479C205.763 747.056 215.385 759.767 225.533 771.537C227.561 773.883 226.99 778.421 226.921 777.924C252.339 800.988 276.924 823.32 304.161 848.061C297.24 848.579 293.13 849.386 289.094 849.048C283.34 848.598 277.628 847.315 271.857 846.396C272.261 852.399 272.677 858.442 272.981 862.879C263.051 872.58 253.601 881.743 243.498 891.585C230.84 878.138 227.486 862.954 229.565 844.695C230.654 835.032 229.459 820.815 223.322 815.262C180.232 776.386 135.636 739.188 91.3724 701.671C87.7937 698.644 83.1372 696.729 78.7954 694.717C77.1802 693.969 75.0057 694.474 70.3676 694.281C98.0489 762.264 155.893 802.753 203.89 854.731C199.276 854.616 196.428 854.9 193.686 854.417C190.411 853.885 187.239 852.716 188.043 852.94C178.98 865.004 171.361 875.193 163.73 885.343C161.02 885.238 158.322 885.173 155.573 885.081C153.179 872.145 150.982 859.147 148.3 846.257C146.545 837.999 146.698 826.858 141.429 822.286C107.953 793.188 73.1977 765.525 38.7623 737.504C36.8623 735.982 34.081 735.511 28.7507 733.375C47.8329 785.695 91.7563 813.951 122.528 848.641C113.459 857.642 105.401 865.593 93.9256 876.985C90.3613 849.911 85.3625 827.514 63.3249 812.934C43.9397 800.075 26.689 784.089 8.48548 769.479C5.95543 772.167 3.42515 774.856 0.907365 777.583C22.1142 801.961 43.3091 826.299 67.1551 853.739C51.4029 871.774 34.6906 890.885 14.1635 914.38C23.1146 912.063 30.3401 911.968 35.2316 908.543C44.7243 901.87 52.3253 892.593 61.7935 885.842C65.7869 882.999 72.4706 883.936 77.9628 883.129C77.5577 889.169 79.5587 897.523 76.3396 900.772C67.9327 909.264 57.2351 915.536 46.2167 923.548C53.7666 930.862 60.5192 938.943 71.4235 928.765C78.821 921.882 85.5945 914.245 91.4371 908.192C99.0365 911.649 104.374 914.085 109.751 916.509C110.982 910.902 111.797 905.209 113.508 899.755C115.191 894.352 116.507 887.769 120.378 884.533C122.538 882.737 130.081 885.737 134.152 888.266C139.28 891.414 143.372 896.225 151.276 903.428C131.917 919.178 113.737 933.999 93.7293 950.296C100.601 953.635 110.688 958.561 120.156 963.162C133.566 949.526 145.433 937.451 159.348 923.356C162.095 930.225 163.772 934.494 165.549 938.946C179.865 938.323 187.365 929.552 183.923 917.547C180.557 905.648 182.995 896.988 192.874 894.598C199.424 893.03 208.249 899.169 215.543 902.894C219.649 904.98 222.643 909.183 227.522 913.747C204.169 937.735 189.395 971.091 147.808 969.99C147.598 972.084 147.387 974.178 147.177 976.273C156.615 981.056 166.843 984.772 175.382 990.827C191.394 1002.15 193.504 988.283 201.129 979.776C213.632 965.862 228.802 954.268 246.916 938.129C249.014 952.194 250.236 960.402 251.433 968.532C280.754 963.402 285.097 956.695 272.735 929.386C265.212 912.74 278.537 908.109 286.954 902.419C291.42 899.429 302.147 901.004 307.228 904.556C317.736 911.94 326.339 922.077 335.683 930.99C316.563 953.183 298.557 976.453 277.801 996.998C270.647 1004.11 256.862 1004.91 245.857 1007.57C239.555 1009.1 232.721 1008.51 220.424 1009.24C227.619 1017.35 231.293 1022.21 235.751 1026.26C238.16 1028.44 241.86 1029.23 245.042 1030.57C256.899 1035.63 270.03 1046.3 280.296 1044.05C289.752 1041.96 295.361 1025.19 304.139 1016.37C316.695 1003.73 330.188 991.882 344.148 980.837C349.313 976.766 356.984 975.884 363.51 973.546C364.636 980.619 365.999 987.619 366.747 994.724C366.986 997.152 365.762 999.736 363.657 1009.33C379.71 1001.26 395.351 998.233 401.191 988.988C406.075 981.249 402.779 964.45 397.4 954.818C383.783 930.405 407.201 925.733 416.624 913.989C425.391 903.053 435.07 904.869 444.327 914.888C449.881 920.925 456.565 925.877 462.635 931.494C470.64 938.882 478.512 946.398 488.23 955.539C483.734 959.402 480.104 962.994 476.044 965.901C471.059 969.441 461.82 971.804 461.089 975.831C456.334 1002.95 425.178 1007.19 415.801 1031.26C405.106 1058.73 378.049 1058.1 353.241 1059.15C345.908 1059.45 338.72 1062.3 331.463 1063.96C335.864 1069.62 339.048 1077.48 344.843 1080.55C364.64 1090.99 385.071 1100.42 405.863 1108.65C409.655 1110.14 419.682 1105.46 421.274 1101.43C440.01 1054.19 485.77 1033.92 517.588 999.129C537.073 1026.85 540.905 1030.96 524.731 1057.2C535.112 1060.44 575.987 1048.6 577.87 1038.3C580.574 1023.43 580.528 1005.14 574.002 992.109C559.272 962.604 557.171 963.345 581.834 940.373C619.208 905.537 610.023 909.179 644.336 939.44C661.794 954.843 678.745 970.836 695.949 986.534C703.981 993.871 703.939 1000.66 694.042 1006.04C686.213 1010.29 676.728 1012.56 670.485 1018.43C664.202 1024.32 658.2 1033.18 657.14 1041.41C655.77 1052.11 657.5 1056.97 642.181 1056.18C633.793 1055.73 621.852 1070.89 616.169 1081.47C591.551 1127.44 563.342 1142.37 511.487 1135.62C503.748 1134.62 495.305 1138.98 487.158 1140.83C491.637 1147.85 495.982 1155 500.672 1161.87C501.775 1163.47 503.786 1164.65 505.635 1165.46C533.886 1178.36 562.206 1191.06 590.418 1203.98C600.95 1208.81 608.478 1205.25 611.289 1194.88C618.854 1166.79 638.163 1147.56 658.8 1129.12C685.303 1105.41 711.947 1081.86 742.865 1054.43C749.194 1070.16 758.032 1082.29 757.694 1094.22C757.401 1105.19 747.256 1115.87 740.868 1127.79C742.39 1128.65 745.189 1131.53 746.648 1130.95C769.951 1121.48 793.169 1111.73 816.201 1101.53C818.739 1100.39 821.994 1095.32 821.317 1093.29C814.573 1072.77 827.066 1048.03 806.575 1030.37C790.764 1016.79 794.405 1004.65 809.974 991.977C828.072 977.311 844.566 960.685 861.301 944.415C871.376 934.626 878.724 935.614 888.818 945.545C916.129 972.465 944.61 998.286 972.773 1024.34C985.273 1035.89 983.363 1045.55 967.902 1054.69C952.178 1063.95 936.815 1074.1 922.422 1085.28C919.297 1087.72 921.655 1096.52 920.293 1102.13C918.268 1110.31 915.206 1118.22 912.322 1126.97C907.047 1123.35 902.699 1120.35 894.078 1114.45C882.094 1132.51 871.213 1150.11 859.1 1166.79C847.121 1183.22 833.909 1198.74 821.082 1214.52C819.425 1216.55 816.687 1218.57 814.242 1218.9C783.668 1222.78 753.123 1226.48 722.495 1229.77C717.856 1230.27 712.561 1227 708.352 1228.18C700.262 1230.49 692.746 1234.78 685.023 1238.27C688.698 1244.37 690.918 1252.87 696.316 1256.2C715.862 1268.19 735.897 1279.81 756.908 1288.88C773.69 1296.16 793.763 1293.23 805.824 1313.9C810.909 1322.58 828.779 1324.22 841.184 1327.99C843.906 1328.82 848.613 1325.5 851.374 1323C853.776 1320.87 855.514 1317.3 856.281 1314.09C870.25 1257.93 915.856 1226.92 954.728 1190.79C982.751 1164.74 1012.19 1140.2 1045.95 1110.67C1056.77 1138.85 1067.31 1163.62 1075.15 1189.19C1076.63 1193.95 1067.39 1201.97 1063.23 1208.58C1058.49 1216.1 1053.82 1223.68 1049.15 1231.27C1058.13 1230.71 1067.9 1232.28 1075.88 1229.19C1099.54 1220.04 1122.68 1209.5 1145.57 1198.56C1159.49 1191.94 1162.66 1181.19 1156.97 1166C1153.88 1157.77 1156.6 1147.51 1155.91 1138.23C1155.44 1131.9 1155.39 1124.54 1152.19 1119.54C1141.13 1102.22 1129.59 1085.02 1116.6 1069.13C1108.37 1059.05 1107.62 1052.64 1117.74 1043.56C1147.37 1016.97 1176.61 989.983 1205.15 962.263C1215.98 951.719 1222.78 954.131 1232.33 963.582C1267.47 998.29 1303.09 1032.46 1338.95 1066.43C1345.2 1072.33 1353.41 1076.12 1360.73 1080.87C1370.07 1071.78 1379.42 1062.7 1388.8 1053.6C1393.52 1036.33 1401.71 1022.16 1420.83 1017.84L1420.74 1017.95L1420.57 1017.83Z" fill="white"/>
</svg>
