<svg width="1280" height="1303" viewBox="0 0 1280 1303" fill="none" xmlns="http://www.w3.org/2000/svg">
<g clip-path="url(#clip0_334_3)">
<rect width="1280" height="1303" fill="black"/>
<g style="mix-blend-mode:difference" clip-path="url(#clip1_334_3)">
<path d="M1698 1152.38V1303H-325C-325 1246.8 -325 1190.64 -325 1134.44C-309.863 1136.06 -294.798 1133.76 -279.303 1135.09C-250.859 1137.53 -221.698 1129.6 -192.752 1128.1C-174.53 1127.16 -154.336 1118.02 -138.303 1136.31C-136.724 1138.1 -129.587 1135.45 -125.175 1134.3C-119.543 1132.79 -114.163 1129.67 -108.496 1129.07C-68.3227 1124.76 -28.0779 1120.89 12.131 1116.94C49.5422 1113.25 86.9892 1109.91 124.364 1105.79C131.359 1105.04 138.066 1101.38 144.881 1099.08C144.881 1096.97 144.881 1094.85 144.846 1092.74C136.129 1090.98 127.413 1087.57 118.733 1087.72C92.513 1088.15 65.9342 1093.31 40.1804 1090.51C-25.6388 1083.34 -89.7722 1096 -153.87 1105.04C-210.973 1113.07 -267.646 1116.91 -325 1112.93C-325 1105.75 -325 1098.58 -325 1091.41C-307.137 1088.72 -289.31 1084.24 -271.376 1083.73C-229.158 1082.48 -186.833 1084.63 -144.687 1082.62C-76.8236 1079.39 -9.06743 1073.94 58.7246 1069.35C66.4722 1068.82 74.2199 1068.13 81.8241 1066.81C84.9447 1066.27 87.7066 1063.83 91.0782 1062.04C68.2298 1041.45 47.39 1019.5 13.4223 1025.67C21.6721 1024.63 29.9578 1023.56 42.8706 1021.94C3.27141 1010.07 -30.8398 998.668 -65.5967 989.702C-106.487 979.194 -141.997 962.41 -159.609 921.024C-162.586 914.031 -162.622 905.783 -164.379 895.992C-169.257 896.817 -178.691 898.431 -189.846 900.367C-185.255 907.468 -182.314 911.987 -179.911 915.681H-279.124C-279.124 913.744 -279.124 911.808 -279.088 909.871H-228.8C-228.836 908.723 -228.907 907.576 -228.943 906.428C-240.816 905.46 -252.724 904.492 -264.597 903.523C-264.561 902.125 -264.525 900.69 -264.489 899.292C-259.396 898.359 -254.302 897.391 -248.348 896.315C-263.162 894.199 -276.649 892.298 -290.171 890.362C-290.028 889.68 -289.884 889.035 -289.705 888.353C-280.63 886.381 -271.591 884.408 -262.516 882.436C-262.767 881.073 -263.019 879.746 -263.27 878.384C-271.484 876.949 -279.733 875.514 -287.947 874.08C-287.84 871.462 -287.732 868.844 -287.589 866.262H-195.729C-223.097 857.296 -249.424 849.837 -276.29 845.927C-292.108 843.632 -308.715 846.86 -325 847.613C-325 776.999 -325 706.493 -325 635.95C-251.002 633.44 -176.969 630.93 -102.972 628.419C-102.972 626.841 -102.972 625.299 -103.008 623.721C-153.655 621.856 -204.301 619.991 -254.912 618.162C-254.912 617.051 -254.912 615.975 -254.948 614.863C-202.759 612.317 -150.57 609.806 -98.3449 607.26C-128.511 604.14 -158.748 601.952 -189.021 601.307C-234.323 600.339 -279.662 600.41 -324.964 600.052C-325 591.731 -325 583.34 -325 574.983C-313.88 569.138 -302.797 563.328 -291.678 557.482C-295.516 547.441 -296.341 540.699 -295.372 534.207C-293.041 519.109 -289.848 504.154 -286.584 486.976C-305.057 488.626 -318.902 487.37 -325.036 470.981V-214H1697.96V180.492C1626.66 212.661 1555.28 244.722 1492.9 293.101C1501.48 291.954 1508.9 288.547 1516.11 284.781C1536.05 274.381 1555.71 263.335 1575.87 253.437C1595.06 244.005 1614.5 234.824 1634.4 227.078C1655.21 218.973 1676.77 212.697 1697.96 205.596V223.527C1695.67 224.065 1693.12 224.209 1691.08 225.249C1627.02 258.063 1562.27 289.658 1499.32 324.481C1470.77 340.297 1445.81 362.639 1419.19 382.005C1422.56 384.014 1424.32 383.763 1425.68 382.83C1500.18 332.263 1575.9 283.992 1661.02 252.612C1654.81 257.633 1648.57 262.654 1640.83 268.93C1664.28 279.33 1680.75 267.316 1698 259.354V908.472C1624.86 908.078 1552.09 912.561 1479.63 923.822C1490.5 925.83 1501.33 925.292 1512.13 924.754C1574.07 921.706 1636.02 918.657 1698 915.609V940.713C1680.5 932.034 1662.24 938.203 1644.38 938.31C1614.57 938.525 1584.73 939.888 1554.96 941.395C1549.29 941.682 1543.87 945.626 1538.13 946.415C1529.99 947.527 1521.06 949.428 1513.53 947.24C1484.01 938.705 1455.24 935.728 1427.01 951.185C1419.12 955.524 1411.62 961.155 1403.23 963.809C1387.84 968.686 1371.92 971.986 1356.17 975.608C1333.11 980.915 1310.01 985.9 1286.94 991.1C1240.42 1001.57 1193.9 1012.04 1147.45 1022.73C1142.89 1023.77 1138.63 1026.28 1134.25 1028.11C1134.36 1030.3 1134.5 1032.49 1134.61 1034.64C1142.79 1035.61 1151 1037.44 1159.14 1037.33C1190.13 1036.9 1221.12 1035.36 1252.12 1035.14C1318.36 1034.64 1384.65 1034.78 1450.9 1034.46C1482.54 1034.32 1514.21 1033.38 1545.84 1033.6C1552.48 1033.63 1559.08 1037.22 1565.68 1039.19C1565.36 1041.74 1565.03 1044.29 1564.68 1046.83C1553.99 1047.48 1543.26 1049.02 1532.61 1048.59C1471.45 1046.11 1410.51 1047.3 1349.36 1051.13C1283.46 1055.26 1217.21 1054.22 1151.14 1056.05C1134.5 1056.51 1117.82 1058.49 1101.43 1061.39C1096.19 1062.32 1091.93 1068.56 1087.23 1072.4C1091.96 1076.1 1096.41 1082.59 1101.43 1083.09C1137.73 1086.64 1174.06 1088.4 1210.04 1079.32C1217.97 1077.31 1226.36 1076.81 1234.61 1076.31C1264.81 1074.41 1295.12 1073.3 1325.29 1070.9C1345.91 1069.25 1366.43 1065.91 1386.98 1063.33C1386.34 1064.76 1385.69 1066.23 1385.08 1067.67C1388.78 1069.6 1392.51 1073.26 1396.13 1073.19C1425.25 1072.58 1454.42 1072.22 1483.43 1069.93C1512.49 1067.67 1541.36 1060.6 1570.34 1060.46C1613.46 1060.28 1657 1069.28 1698 1048.3V1087.75C1649.29 1086.93 1600.58 1084.92 1551.91 1085.6C1504.85 1086.24 1457.79 1089.26 1410.76 1092.09C1398.46 1092.84 1386.44 1097.94 1374.14 1098.98C1321.34 1103.49 1268.51 1107.4 1215.64 1111.13C1208.07 1111.67 1200.32 1109.95 1192.64 1109.23C1180.27 1108.09 1167.9 1106.15 1155.52 1105.97C1143.65 1105.79 1131.74 1107.01 1119.9 1108.26C1091.1 1111.38 1062.12 1113.68 1033.71 1118.99C1024.28 1120.74 1016.39 1130.64 1004.33 1139.32C1012.73 1142.33 1015.35 1144.06 1018 1144.13C1065.71 1145.17 1113.37 1146.57 1161.08 1146.6C1185.15 1146.6 1209.22 1142.73 1233.25 1143.16C1256.38 1143.55 1279.41 1148.57 1302.55 1149.11C1340.57 1149.94 1378.62 1148.75 1416.68 1148.47C1418.47 1148.47 1420.27 1148.79 1422.06 1148.61C1423.75 1148.43 1425.43 1147.79 1428.12 1147.07C1412.23 1144.81 1397.92 1142.73 1383.65 1140.68C1383.83 1138.71 1384 1136.74 1384.22 1134.8C1386.26 1134.09 1388.42 1132.51 1390.39 1132.72C1435.19 1137.17 1479.06 1128.38 1523.32 1124.33C1547.46 1122.11 1571.85 1123.04 1596.13 1122.29C1609.19 1121.89 1623.43 1124.04 1635.01 1119.56C1656.28 1111.31 1676.77 1111.46 1698.04 1116.55V1141.65C1678.2 1139.25 1658.33 1134.59 1638.53 1134.91C1592.12 1135.66 1545.7 1138.6 1499.32 1141.19C1484.47 1142.01 1469.7 1144.56 1454.88 1146.28C1454.99 1148.32 1455.13 1150.37 1455.24 1152.41H1698.04L1698 1152.38ZM1041.85 751.142C1043.22 752.146 1044.54 753.15 1045.91 754.119C1053.87 749.672 1063.3 746.695 1069.54 740.491C1083.42 726.719 1093.36 707.533 1109.32 697.706C1126.43 687.163 1124.21 680.779 1115.06 667.51C1111.19 661.915 1110.51 651.802 1112.48 644.916C1118.9 622.43 1128.4 600.841 1134.5 578.283C1144.9 539.945 1134.97 499.169 1146.95 460.796C1147.2 459.971 1146.16 458.752 1145.76 457.712C1137.37 436.266 1127.04 415.322 1121.34 393.159C1117.68 378.921 1120.48 362.926 1121.16 347.72C1121.66 336.639 1124.06 325.593 1124.35 314.511C1124.71 300.668 1124.53 286.718 1123.06 272.982C1122.13 264.303 1118.76 255.804 1115.92 247.412C1114.63 243.575 1112.08 240.168 1109.97 236.653C1100.57 221.053 1092.46 204.484 1081.38 190.211C1066.6 171.132 1049.6 153.774 1033.32 135.878C1030.59 132.902 1026.64 131.073 1023.31 128.634C1015.2 122.717 1005.62 118.019 999.312 110.559C985.18 93.7394 967.963 82.7295 946.728 78.8205C930.91 75.9156 917.818 70.1058 907.309 57.3386C903.04 52.1385 895.795 48.4805 889.159 46.2928C854.115 34.745 819.035 23.3047 783.597 13.0838C770.613 9.31818 755.368 4.62014 743.46 8.1347C729.005 12.4024 718.675 8.34988 706.049 4.69186C694.14 1.24903 680.976 2.00216 668.315 1.50008C663.185 1.32076 657.985 3.58012 652.891 3.29321C629.756 1.93042 606.62 -2.26553 584.238 8.56506C580.185 10.5375 573.37 9.7844 569.03 7.74022C543.312 -4.4173 517.917 6.23397 492.45 8.06297C489.867 8.24229 487.177 10.0354 484.918 11.6493C478.641 16.0604 473.188 23.0537 466.302 24.9185C444.493 30.8718 422.326 37.1119 399.944 38.8333C388.287 39.7299 379.105 42.0969 369.025 47.4404C354.714 55.0434 339.326 63.6863 323.759 65.085C309.16 66.4119 295.925 65.8022 284.59 76.848C280.501 80.8646 274.583 83.6978 269.023 85.3834C222.358 99.6209 187.027 128.311 162.278 169.805C152.701 185.871 135.914 201.149 150.513 223.348C152.163 225.858 149.939 234.537 147.392 235.721C123.001 246.802 127.557 273.197 131.036 286.897C135.52 304.541 137.887 323.872 144.774 340.189C155.212 364.899 157.507 390.146 161.811 415.573C163.39 424.897 168.232 433.648 170.85 440.677C167.802 449.356 159.659 460.437 162.278 467.467C169.021 485.434 180.248 501.823 190.435 518.356C192.694 522.05 197.788 525.134 202.128 526.21C219.74 530.513 222.215 542.886 223.685 558.63C224.761 570.178 228.563 587.715 236.311 591.265C264.002 603.925 261.204 622.179 252.308 644.055C251.412 646.243 250.336 649.04 250.981 651.013C256.469 668.012 257.438 690.426 269.059 700.719C295.459 724.137 334.986 728.118 360.489 755.087C361.959 756.665 364.757 757.239 367.053 757.812C382.405 761.614 390.798 769.289 381.436 786.252C385.346 788.081 388.144 789.013 390.511 790.591C413.646 806.227 453.748 801.242 455.218 843.704C455.29 845.676 460.67 848.008 463.934 849.191C471.216 851.845 479.537 852.526 485.958 856.471C495.678 862.46 504.789 869.884 512.931 877.917C519.639 884.516 524.624 892.872 531.547 902.017C528.462 905.854 523.082 912.561 515.227 922.351C546.002 927.013 573.155 931.138 600.343 935.262C587.466 941.036 573.621 941.323 562.645 947.061C550.988 953.158 542.738 958.752 533.269 944.981C532.013 943.188 524.983 945.375 520.643 945.698C521.324 949.356 521.324 953.337 522.795 956.636C525.413 962.446 530.794 967.574 531.69 973.492C533.663 986.689 539.725 989.128 551.49 985.183C560.457 982.171 569.819 980.306 579.181 978.764C582.803 978.154 586.857 979.445 590.587 980.449C598.406 982.565 606.154 987.048 613.902 987.048C653.286 987.048 691.02 996.337 728.61 1006.34C732.986 1007.49 736.322 1012.44 740.16 1015.63C737.183 1018.86 734.78 1023.38 731.085 1025.13C717.312 1031.73 703.359 1038.12 688.939 1043.1C682.949 1045.15 675.022 1045.18 669.068 1043.1C652.246 1037.15 636.93 1035.36 619.175 1042.6C599.734 1050.53 579.539 1054.86 556.727 1048.55C519.387 1038.19 481.438 1028.94 442.162 1027.82C436.387 1027.64 430.002 1023.92 425.16 1020.15C399.729 1000.32 370.568 987.729 339.254 984.538C297.144 980.27 254.891 979.302 213.642 967.646C199.079 963.522 182.866 965.53 167.479 963.809C154.136 962.339 140.972 959.111 127.664 957.497C117.37 956.242 106.896 955.453 96.5661 955.991C83.4023 956.636 70.2026 958.358 57.1822 960.474C42.2608 962.912 27.0524 965.136 12.956 970.157C8.97457 971.555 4.59858 985.255 6.96592 988.447C12.7049 996.193 21.4928 1003.58 30.5317 1006.67C59.8724 1016.71 89.8587 1024.78 119.63 1033.56C220.421 1063.33 321.499 1092.09 421.896 1123.15C485.671 1142.87 550.701 1156.57 616.879 1159.19C732.305 1163.78 843.928 1140.83 951.32 1099.01C1001.36 1079.54 1049.89 1056.26 1099.03 1034.53C1148.02 1012.87 1196.48 989.953 1246.02 969.654C1278.37 956.385 1312.23 946.882 1345.34 935.405C1364.49 928.771 1382.96 918.155 1402.58 915.537C1425.79 912.453 1435.66 895.49 1452.05 883.117C1434.47 866.764 1419.34 851.522 1402.98 837.715C1387.63 824.733 1381.82 826.167 1370.73 842.09C1368.76 844.923 1366.29 848.295 1363.27 849.442C1326.58 863.608 1297.45 893.948 1251.94 890.828C1231.53 889.429 1208.53 899.543 1185.18 899.578C1156.96 899.578 1128.73 905.137 1100.57 908.616C1091.24 909.763 1081.77 911.055 1072.81 913.708C1054.37 919.088 1035.25 913.278 1022.84 897.714C1020.76 895.096 1017.86 893.123 1013.77 889.429C1009.61 899.22 1006.13 907.468 1002.18 916.793C987.332 891.438 987.403 891.689 958.493 900.08C953.113 901.658 945.975 902.304 941.24 900.045C928.83 894.056 917.352 886.237 903.829 878.168C905.874 856.615 928.471 832.909 953.579 829.718C989.663 825.127 990.488 823.764 1000.64 789.766C1002.54 783.347 1010.5 774.883 1016.39 774.238C1031.49 772.588 1039.02 765.272 1041.96 751.142H1041.85ZM199.115 1132.22C176.518 1111.78 44.4847 1118.81 13.9962 1140.18C69.9156 1140.18 124.616 1140.4 179.315 1139.86C185.198 1139.79 191.08 1135.45 199.115 1132.19V1132.22ZM1350.54 397.713C1350.18 395.884 1349.82 394.091 1349.46 392.262C1342.04 390.792 1334.54 389.537 1327.15 387.851C1309.9 383.978 1292.68 380.033 1275.47 375.944C1270.48 374.761 1265.57 373.075 1260.65 371.605C1263.66 377.2 1265.53 386.488 1269.83 387.779C1291.53 394.306 1313.77 399.219 1336.08 403.487C1340.39 404.312 1345.7 399.757 1350.54 397.677V397.713ZM1503.84 902.985H1671.06C1671.06 901.264 1670.99 899.578 1670.96 897.857C1614.89 888.066 1559.44 900.547 1503.84 902.985ZM1386.41 366.082H1282.32L1282.57 371.282C1317.4 371.497 1352.51 378.132 1386.41 366.082ZM-3.04146 1139.11C-3.1132 1136.81 -3.22082 1134.48 -3.29256 1132.19C-36.1842 1133.73 -69.076 1135.23 -101.968 1136.78C-101.932 1137.56 -101.896 1138.32 -101.824 1139.11H-3.00563H-3.04146Z" fill="black"/>
<path d="M1698 1048.37C1657 1069.35 1613.42 1060.35 1570.34 1060.53C1541.36 1060.64 1512.49 1067.7 1483.43 1070C1454.41 1072.26 1425.25 1072.65 1396.13 1073.26C1392.47 1073.33 1388.78 1069.68 1385.08 1067.74C1385.73 1066.3 1386.37 1064.83 1386.98 1063.4C1366.43 1065.98 1345.91 1069.32 1325.29 1070.97C1295.12 1073.37 1264.85 1074.48 1234.61 1076.38C1226.4 1076.88 1218 1077.42 1210.04 1079.39C1174.06 1088.47 1137.73 1086.68 1101.43 1083.16C1096.41 1082.66 1091.92 1076.2 1087.23 1072.47C1091.92 1068.67 1096.19 1062.4 1101.43 1061.46C1117.79 1058.52 1134.5 1056.59 1151.14 1056.12C1217.21 1054.29 1283.43 1055.33 1349.36 1051.21C1410.51 1047.37 1471.45 1046.19 1532.61 1048.66C1543.26 1049.09 1553.99 1047.55 1564.68 1046.9C1565 1044.36 1565.32 1041.81 1565.68 1039.26C1559.08 1037.33 1552.48 1033.74 1545.84 1033.67C1514.21 1033.45 1482.57 1034.35 1450.9 1034.53C1384.65 1034.85 1318.36 1034.71 1252.11 1035.21C1221.12 1035.46 1190.13 1037 1159.14 1037.4C1150.96 1037.51 1142.79 1035.64 1134.61 1034.71C1134.5 1032.52 1134.36 1030.33 1134.25 1028.18C1138.66 1026.35 1142.89 1023.84 1147.45 1022.8C1193.9 1012.12 1240.42 1001.68 1286.94 991.172C1310.01 985.972 1333.14 980.987 1356.17 975.679C1371.95 972.057 1387.84 968.758 1403.23 963.881C1411.66 961.227 1419.12 955.56 1427.01 951.257C1455.2 935.8 1484.01 938.777 1513.53 947.312C1521.06 949.5 1529.99 947.599 1538.13 946.487C1543.87 945.698 1549.29 941.753 1554.96 941.466C1584.76 939.96 1614.57 938.597 1644.38 938.382C1662.24 938.274 1680.5 932.106 1698 940.785V1048.37ZM1668.44 1048.66C1668.66 1046.47 1668.91 1044.25 1669.13 1042.06C1653.27 1039.69 1637.42 1037.29 1621.56 1034.92C1621.28 1037.65 1620.95 1040.38 1620.67 1043.1L1668.44 1048.66Z" fill="white"/>
<path d="M-325 847.542C-308.751 846.788 -292.108 843.561 -276.29 845.856C-249.46 849.765 -223.133 857.225 -195.729 866.19H-287.625C-287.732 868.808 -287.84 871.426 -287.983 874.008C-279.769 875.443 -271.52 876.877 -263.306 878.312C-263.055 879.675 -262.804 881.002 -262.552 882.364C-271.627 884.337 -280.666 886.309 -289.741 888.282C-289.884 888.963 -290.028 889.609 -290.207 890.29C-276.685 892.227 -263.198 894.127 -248.384 896.243C-254.339 897.355 -259.432 898.288 -264.525 899.22C-264.561 900.619 -264.597 902.053 -264.633 903.452C-252.76 904.42 -240.852 905.388 -228.979 906.357C-228.943 907.504 -228.872 908.652 -228.836 909.799H-279.124C-279.124 911.736 -279.124 913.673 -279.16 915.609H-179.983C-182.386 911.915 -185.327 907.397 -189.918 900.296C-178.763 898.395 -169.329 896.781 -164.451 895.921C-162.694 905.711 -162.658 913.96 -159.681 920.953C-142.069 962.375 -106.523 979.122 -65.6687 989.63C-30.9118 998.56 3.1994 1009.96 42.7986 1021.87C29.8858 1023.52 21.636 1024.56 13.3503 1025.6C47.318 1019.43 68.1578 1041.42 91.0062 1061.97C87.6704 1063.76 84.8726 1066.16 81.7521 1066.74C74.1479 1068.06 66.3643 1068.74 58.6525 1069.28C-9.13947 1073.87 -76.8956 1079.32 -144.759 1082.55C-186.905 1084.56 -229.23 1082.41 -271.448 1083.66C-289.382 1084.2 -307.209 1088.68 -325.072 1091.34C-325.072 1081.76 -325.072 1072.22 -325.072 1062.65C-299.856 1073.01 -276.003 1059.71 -252.007 1056.66C-206.525 1050.88 -161.51 1046.62 -115.419 1047.08C-87.1899 1047.37 -58.8177 1035.79 -30.5173 1029.51C-30.4455 1028.97 -30.3379 1028.47 -30.2662 1027.93H-225.715C-220.012 1032.63 -218.039 1034.24 -214.058 1037.51H-325C-325 974.245 -325 910.911 -325 847.542Z" fill="white"/>
<path d="M1698 1116.51C1676.69 1111.42 1656.25 1111.31 1634.98 1119.53C1623.39 1124.01 1609.15 1121.82 1596.1 1122.25C1571.81 1123 1547.42 1122.11 1523.28 1124.3C1479.02 1128.35 1435.15 1137.13 1390.35 1132.69C1388.38 1132.51 1386.26 1134.05 1384.18 1134.77C1384 1136.74 1383.83 1138.71 1383.61 1140.65C1397.92 1142.69 1412.23 1144.74 1428.09 1147.03C1425.36 1147.75 1423.71 1148.4 1422.03 1148.57C1420.27 1148.75 1418.44 1148.43 1416.64 1148.43C1378.59 1148.75 1340.53 1149.94 1302.51 1149.08C1279.38 1148.57 1256.35 1143.52 1233.21 1143.12C1209.18 1142.73 1185.11 1146.6 1161.04 1146.57C1113.34 1146.53 1065.67 1145.13 1017.96 1144.09C1015.31 1144.02 1012.69 1142.3 1004.3 1139.29C1016.35 1130.61 1024.28 1120.71 1033.67 1118.95C1062.08 1113.64 1091.06 1111.35 1119.87 1108.23C1131.7 1106.94 1143.61 1105.72 1155.48 1105.93C1167.86 1106.11 1180.23 1108.05 1192.61 1109.2C1200.28 1109.91 1208.03 1111.64 1215.6 1111.1C1268.47 1107.37 1321.31 1103.46 1374.1 1098.94C1386.41 1097.9 1398.42 1092.81 1410.73 1092.05C1457.75 1089.22 1504.81 1086.21 1551.87 1085.56C1600.54 1084.88 1649.25 1086.89 1697.96 1087.72V1116.41L1698 1116.51ZM1276.18 1132.76C1291 1136.99 1303.44 1141.58 1316.28 1143.66C1321.52 1144.52 1327.65 1139.9 1333.36 1137.78C1332.86 1136.09 1332.39 1134.44 1331.89 1132.76H1276.15H1276.18ZM1551.76 1107.48C1551.76 1108.62 1551.76 1109.74 1551.76 1110.88H1583.76C1583.76 1109.74 1583.76 1108.62 1583.79 1107.48H1551.8H1551.76Z" fill="white"/>
<path d="M-325 1112.93C-267.646 1116.91 -210.973 1113.07 -153.906 1105C-89.8081 1095.96 -25.6747 1083.34 40.1446 1090.48C65.8983 1093.27 92.4771 1088.11 118.697 1087.68C127.377 1087.54 136.094 1090.94 144.81 1092.7C144.81 1094.82 144.81 1096.93 144.846 1099.05C138.03 1101.38 131.323 1105 124.329 1105.75C86.9533 1109.84 49.5063 1113.21 12.0952 1116.91C-28.1138 1120.85 -68.3586 1124.73 -108.532 1129.03C-114.199 1129.64 -119.579 1132.76 -125.211 1134.27C-129.622 1135.45 -136.76 1138.07 -138.339 1136.27C-154.372 1117.98 -174.566 1127.13 -192.787 1128.06C-221.769 1129.57 -250.931 1137.49 -279.339 1135.05C-294.834 1133.73 -309.863 1136.02 -325.036 1134.41V1112.89L-325 1112.93Z" fill="white"/>
<path d="M1041.85 751.142C1038.91 765.272 1031.38 772.588 1016.28 774.237C1010.36 774.883 1002.43 783.347 1000.53 789.766C990.38 823.764 989.555 825.127 953.471 829.717C928.363 832.909 905.766 856.614 903.721 878.168C917.244 886.237 928.758 894.055 941.133 900.044C945.831 902.304 952.969 901.658 958.385 900.08C987.296 891.688 987.224 891.473 1002.07 916.792C1006.02 907.468 1009.53 899.22 1013.66 889.429C1017.75 893.123 1020.62 895.095 1022.73 897.713C1035.14 913.278 1054.3 919.088 1072.7 913.708C1081.7 911.09 1091.14 909.763 1100.46 908.616C1128.65 905.173 1156.88 899.614 1185.08 899.578C1208.43 899.578 1231.42 889.429 1251.83 890.828C1297.35 893.948 1326.47 863.608 1363.16 849.442C1366.18 848.294 1368.62 844.923 1370.63 842.09C1381.71 826.167 1387.52 824.732 1402.87 837.715C1419.19 851.558 1434.36 866.764 1451.94 883.117C1435.51 895.49 1425.68 912.453 1402.48 915.537C1382.86 918.119 1364.38 928.771 1345.23 935.405C1312.12 946.881 1278.26 956.385 1245.91 969.654C1196.37 989.989 1147.92 1012.91 1098.92 1034.53C1049.78 1056.26 1001.21 1079.54 951.212 1099.01C843.856 1140.83 732.233 1163.74 616.771 1159.19C550.557 1156.57 485.563 1142.87 421.788 1123.15C321.391 1092.09 220.313 1063.33 119.522 1033.56C89.7508 1024.78 59.7645 1016.71 30.4238 1006.66C21.349 1003.58 12.597 996.193 6.85804 988.447C4.4907 985.255 8.86671 971.555 12.8481 970.156C26.9805 965.136 42.1529 962.912 57.0744 960.473C70.0947 958.322 83.2944 956.636 96.4583 955.991C106.789 955.488 117.262 956.242 127.557 957.497C140.9 959.111 154.028 962.338 167.371 963.809C182.723 965.53 198.971 963.522 213.534 967.646C254.783 979.301 297.037 980.27 339.147 984.537C370.46 987.729 399.621 1000.32 425.052 1020.15C429.859 1023.91 436.279 1027.64 442.054 1027.82C481.33 1028.94 519.315 1038.22 556.619 1048.55C579.432 1054.86 599.626 1050.53 619.067 1042.6C636.858 1035.36 652.138 1037.15 668.96 1043.1C674.914 1045.22 682.841 1045.18 688.831 1043.1C703.251 1038.15 717.204 1031.73 730.977 1025.13C734.672 1023.38 737.075 1018.86 740.052 1015.63C736.214 1012.44 732.878 1007.53 728.502 1006.34C690.912 996.336 653.178 987.084 613.794 987.048C606.01 987.048 598.299 982.565 590.479 980.449C586.785 979.445 582.696 978.154 579.073 978.763C569.747 980.341 560.349 982.206 551.382 985.183C539.617 989.128 533.591 986.653 531.583 973.492C530.686 967.574 525.306 962.446 522.687 956.636C521.217 953.337 521.181 949.356 520.535 945.698C524.875 945.375 531.905 943.188 533.161 944.981C542.666 958.752 550.916 953.157 562.537 947.061C573.513 941.323 587.359 941.072 600.236 935.262C573.047 931.138 545.894 927.013 515.119 922.351C522.974 912.561 528.354 905.854 531.439 902.017C524.516 892.872 519.531 884.516 512.823 877.917C504.645 869.884 495.57 862.46 485.85 856.471C479.465 852.526 471.108 851.845 463.826 849.191C460.562 848.007 455.182 845.676 455.11 843.704C453.676 801.242 413.538 806.263 390.403 790.591C388.036 788.977 385.238 788.081 381.328 786.252C390.69 769.253 382.297 761.614 366.945 757.812C364.649 757.238 361.887 756.665 360.381 755.087C334.878 728.082 295.387 724.137 268.951 700.719C257.33 690.426 256.361 668.012 250.873 651.013C250.228 649.04 251.304 646.243 252.201 644.055C261.096 622.179 263.894 603.96 236.203 591.265C228.455 587.715 224.618 570.178 223.577 558.63C222.107 542.886 219.632 530.513 202.02 526.21C197.68 525.134 192.623 522.05 190.327 518.356C180.14 501.823 168.913 485.434 162.17 467.466C159.516 460.437 167.694 449.356 170.743 440.677C168.124 433.648 163.282 424.897 161.704 415.573C157.364 390.146 155.068 364.898 144.666 340.189C137.779 323.871 135.412 304.541 130.928 286.897C127.449 273.197 122.894 246.802 147.284 235.72C149.831 234.573 152.091 225.894 150.405 223.348C135.806 201.149 152.593 185.871 162.17 169.804C186.919 128.311 222.25 99.6207 268.915 85.3832C274.511 83.6976 280.393 80.8286 284.483 76.8478C295.817 65.802 309.053 66.3758 323.651 65.0848C339.182 63.6861 354.606 55.079 368.918 47.4402C378.997 42.0608 388.179 39.7297 399.837 38.8331C422.219 37.0758 444.35 30.8357 466.194 24.9183C473.081 23.0535 478.533 16.0602 484.81 11.649C487.069 10.0711 489.76 8.24207 492.342 8.06276C517.809 6.26961 543.204 -4.41752 568.922 7.74C573.262 9.78419 580.041 10.5373 584.13 8.56485C606.513 -2.26574 629.648 1.96607 652.783 3.293C657.877 3.5799 663.113 1.28468 668.207 1.49985C680.833 1.96607 694.032 1.24881 705.941 4.69165C718.531 8.34966 728.897 12.4022 743.352 8.13448C755.26 4.61992 770.505 9.31796 783.489 13.0836C818.928 23.3403 854.007 34.7448 889.051 46.2926C895.651 48.4802 902.932 52.1383 907.201 57.3384C917.674 70.1056 930.802 75.9154 946.62 78.8202C967.855 82.7293 985.072 93.7392 999.204 110.559C1005.48 118.018 1015.06 122.716 1023.2 128.634C1026.54 131.072 1030.48 132.901 1033.21 135.878C1049.49 153.774 1066.49 171.131 1081.27 190.21C1092.36 204.484 1100.46 221.088 1109.86 236.653C1111.98 240.167 1114.52 243.574 1115.81 247.412C1118.65 255.804 1122.02 264.303 1122.95 272.982C1124.39 286.717 1124.6 300.668 1124.24 314.511C1123.96 325.593 1121.55 336.639 1121.05 347.72C1120.37 362.89 1117.57 378.921 1121.23 393.158C1126.93 415.286 1137.26 436.23 1145.66 457.712C1146.05 458.752 1147.13 459.971 1146.84 460.796C1134.86 499.169 1144.8 539.909 1134.39 578.283C1128.3 600.84 1118.79 622.43 1112.37 644.916C1110.4 651.802 1111.08 661.915 1114.95 667.509C1124.14 680.779 1126.36 687.162 1109.21 697.706C1093.25 707.532 1083.32 726.719 1069.44 740.49C1063.19 746.659 1053.76 749.671 1045.8 754.118C1044.43 753.114 1043.11 752.11 1041.74 751.142H1041.85ZM1055.55 681.604C1057.24 696.917 1070.87 696.702 1080.63 695.59C1087.76 694.801 1094.62 686.768 1100.39 680.815C1102.08 679.093 1100.93 671.598 1098.67 669.841C1095.66 667.509 1089.74 666.613 1086.04 667.94C1075.86 671.598 1066.17 676.726 1055.55 681.604Z" fill="white"/>
<path d="M1276.18 1132.76H1331.92C1332.43 1134.44 1332.89 1136.09 1333.39 1137.78C1327.65 1139.9 1321.56 1144.52 1316.32 1143.66C1303.48 1141.58 1291.03 1136.95 1276.22 1132.76H1276.18Z" fill="black"/>
<path d="M1055.55 681.604C1066.21 676.726 1075.86 671.598 1086.04 667.94C1089.7 666.613 1095.66 667.51 1098.67 669.841C1100.93 671.598 1102.08 679.093 1100.39 680.815C1094.62 686.768 1087.8 694.801 1080.63 695.59C1070.87 696.666 1057.24 696.917 1055.55 681.604Z" fill="black"/>
<g style="mix-blend-mode:difference">
<rect x="294" y="736" width="475" height="246" fill="black"/>
</g>
<path d="M215.893 1190.31L363.414 1101.42L492.052 1136.82L235.956 1293L215.893 1190.31Z" fill="white"/>
<rect x="199.596" y="1195.8" width="6.29423" height="55.8613" transform="rotate(-9.43551 199.596 1195.8)" fill="white"/>
<path d="M-18.0001 775.5C-69.5002 775.5 -59.9999 775.5 44.9999 758C-17.9997 624.5 -73.6 173.7 128 -9.5" stroke="white" stroke-width="26"/>
<path d="M1310 771.5C1361.5 771.5 1352 771.5 1247 754C1310 620.5 1338.6 151.2 1137 -32" stroke="white" stroke-width="34"/>
</g>
<rect width="429.135" height="40.3377" transform="matrix(0.999702 -0.0244275 0.0238552 0.999715 270.981 496.09)" fill="black"/>
<rect x="321.255" y="509.336" width="378.064" height="35.4348" transform="rotate(13.2798 321.255 509.336)" fill="black"/>
<rect x="456.848" y="593.562" width="123.317" height="23.3595" transform="rotate(-1.72476 456.848 593.562)" fill="black"/>
<rect x="316.604" y="529.044" width="460.634" height="46.1043" transform="rotate(28.2752 316.604 529.044)" fill="black"/>
</g>
<defs>
<clipPath id="clip0_334_3">
<rect width="1280" height="1303" fill="white"/>
</clipPath>
<clipPath id="clip1_334_3">
<rect width="2023" height="1517" fill="white" transform="translate(-325 -214)"/>
</clipPath>
</defs>
</svg>
