<svg width="1280" height="1693" viewBox="0 0 1280 1693" fill="none" xmlns="http://www.w3.org/2000/svg">
<path d="M1437.57 1183.83C1445.81 1148.89 1420.37 1126.87 1406.75 1099.82C1395.6 1077.66 1388.34 1053.25 1381.66 1029.22C1375.15 1005.7 1370.78 981.461 1367.05 957.289C1365.75 948.975 1366.75 938.476 1370.85 931.412C1389.49 899.357 1405.63 867.214 1394.18 828.57C1392.31 822.291 1389.42 816.331 1383.33 810.935C1383.22 813.904 1383.06 816.847 1382.91 820.259C1382.34 820.091 1381.09 820.093 1380.9 819.633C1371.4 796.524 1356.42 778.926 1338.35 760.735C1305.38 727.594 1271.83 694.806 1239.56 660.844C1225.04 645.562 1211.8 629.145 1197.51 613.66C1177.77 592.191 1157.61 571.157 1136.8 549.028C1134.29 552.186 1130.38 557.116 1124.49 564.523C1111.61 539.706 1105.07 515.155 1076.9 500.979C1053.55 489.268 1038.5 461.072 1019.8 440.184C1017.86 441.137 1015.89 442.051 1013.95 443.004C1013.96 448.309 1013.92 453.587 1013.95 460.873C1009.02 461.287 1003.38 461.751 996.238 462.383C1000.22 438.178 996.165 423.515 973.569 408.807C932.576 382.054 897.723 346.048 858.564 316.176C834.719 298.017 807.581 284.252 782.022 268.353C733.135 237.89 684.597 206.886 635.279 177.118C625.537 171.221 612.966 169.963 601.715 166.566C600.39 168.273 599.118 170.008 597.793 171.716C600.588 178.183 602.55 185.168 606.27 191C627.721 224.884 650.53 257.999 670.952 292.463C685.354 316.762 695.785 343.421 709.843 368C727.241 398.443 745.347 428.665 765.228 457.514C788.875 491.792 813.43 525.658 840.64 557.098C847.309 564.773 865.728 563.043 878.89 564.118C890.15 565.051 903.2 557.183 913.347 574.348C897.969 581.26 883.775 587.673 865.398 595.908C888.973 609.878 911.064 632.383 935.001 634.499C959.746 636.709 957.136 644.145 979.231 636.477C978.616 637.273 982.348 631.144 977.736 636.986C981.812 638.563 995.682 659.735 1011.01 628.144C1003.56 633.878 996.852 639.51 989.727 644.495C971.414 657.228 967.417 673.352 977.735 692.867C1006.95 686.561 1037.05 682.266 1054.9 654.34C1060.56 660.301 986.06 640.631 989.727 644.495C956.7 680.392 998.848 679.59 977.805 692.673C976.876 694.818 974.719 698.426 975.257 698.906C980.782 703.743 986.788 708.043 991.331 716.381C981.061 713.498 970.803 710.654 960.441 707.757C966.955 726.703 967.377 724.456 998.365 730.071C1020.1 733.996 1043.22 741.506 1060.71 754.264C1073.4 763.515 1077.84 783.972 1085.92 799.365C1097.49 790.49 1107.19 794.157 1111.66 812.66C1114.99 826.383 1121.55 827.748 1134.13 831.379C1145.71 834.717 1154.27 851.383 1162.38 863.4C1172.7 878.744 1182.07 893.991 1204.12 890.871C1201.41 912.781 1220.68 932.885 1249.43 937.427C1245.91 968.223 1276.92 945.126 1284.87 961.206C1278.51 974.456 1268.88 980.396 1252.61 974.765C1246.95 972.818 1238.57 972.54 1233.81 975.407C1217.71 985.002 1202.54 981.49 1193.99 968.188C1182.96 950.992 1167.49 945.976 1153.24 953.873C1143.86 959.089 1141.05 976.239 1135.43 988.135C1134.94 989.194 1135.52 990.782 1135.78 994.802C1149.66 994.574 1163.59 994.373 1176.47 994.152C1163.63 1045.6 1150.1 1052.36 1123.5 1035.75L1123.66 1035.83C1107.2 1048.43 1098.84 1065.93 1089.41 1084.15C1078.21 1105.86 1059.56 1123.72 1044.08 1143.31C1037.16 1125.57 1035.25 1110.15 1026.75 1100.63C1000.65 1071.39 999.985 1034.35 990.649 999.708C985.081 979.086 988.696 961.599 999.709 943.877C1004.97 935.415 1007.4 924.904 1009.61 914.976C1017.1 881.389 989.56 864.814 972.376 844.75C942.164 809.498 908.597 777.062 876.846 743.11C860.639 725.762 845.695 707.201 829.101 690.276C825.751 686.875 817.376 688.408 813.592 687.905C788.196 661.035 762.621 634.006 735.679 605.503C730.392 611.814 727.109 615.687 721.541 622.344C718.802 576.452 680.254 563.353 654.014 543.61C595.599 499.629 532.473 461.866 470.804 422.267C458.751 414.502 444.628 409.928 431.472 403.888C429.885 405.721 428.285 407.515 426.658 409.36C430.713 417.376 434.32 425.618 438.916 433.292C467.865 481.801 496.748 530.374 526.238 578.541C543.915 607.387 559.874 638.063 582.099 663.073C596.669 679.463 610.396 708.245 643.097 694.982C645.24 694.097 648.887 696.931 656.318 699.707C644.008 707.042 635.078 712.331 624.365 718.694C639.508 728.474 652.886 742.431 668.545 745.834C684.164 749.25 702.103 742.102 718.737 739.633C711.672 748.829 702.877 757.183 698.204 767.403C693.859 776.873 699.066 786.644 710.816 784.577C723.835 782.286 736.32 776.623 748.725 771.674C754.836 769.25 760.249 765.145 769.417 759.782C760.914 785.138 722.323 805.548 693.92 806.422C702.709 810.371 711.253 816.857 720.362 817.815C741.587 819.957 757.119 828.494 769.841 846.021C780.455 860.667 792.603 876.216 807.748 885.175C832.007 899.537 843.175 923.851 861.341 942.357C876.286 957.595 899.327 964.869 918.684 975.838C921.83 977.619 926.944 980.168 926.952 982.41C926.98 985.682 923.594 991.443 921.031 991.811C905.024 994.213 888.912 996.001 872.759 996.55C869.04 996.674 864.019 992.068 861.511 988.318C854.401 977.845 844.319 971.968 833.735 978.463C825.975 983.214 821.88 993.901 814.293 1004.47C827.536 1008.02 835.267 1010.1 844.087 1012.49C845.593 1028.12 838.832 1039.12 824.302 1043.35C821.928 1044.04 816.058 1032.84 813.162 1028.95C792.607 1059.84 770.214 1093.41 747.86 1126.97C745.735 1126.25 743.599 1125.49 741.474 1124.77C750.124 1103.21 734.183 1089.63 727.785 1072.71C717.051 1044.25 709.352 1014.58 700.981 985.25C700.066 982.04 702.831 977.335 704.764 973.841C731.934 924.706 715.868 920.825 690.728 890.897C657.775 851.708 620.98 815.704 585.363 778.771C582.551 775.849 575.874 776.594 567.496 774.934C562.553 770.993 564.411 748.702 543.721 761.846C540.376 741.566 535.841 723.427 509.813 721.531C504.553 721.143 501.646 706.424 495.179 701.75C448.031 667.723 400.267 634.492 352.636 601.133C342.526 594.057 332.283 587.108 321.633 580.933C313.873 576.404 305.368 573.23 297.188 569.435C295.778 570.868 294.407 572.288 292.985 573.682C295.464 580.246 297.006 587.405 300.635 593.223C333.565 646.188 366.785 698.976 400.139 751.637C412.154 770.637 426.284 786.862 456.704 781.518C448.728 790.006 444.307 794.665 436.131 803.344C449.781 809.446 461.398 818.168 473.546 819.041C485.213 819.891 480.302 832.854 495.179 828.214C488.453 845.42 472.44 832.249 497.389 855.33C510.487 847.619 505.509 872.798 518.608 865.087C519.875 867.627 519.03 850.028 520.309 852.607C507.556 858.657 515.059 851.891 502.318 857.98C497.705 859.807 493.041 861.607 488.429 863.434C526.208 867.837 545.385 896.647 569.345 920.295C594.929 945.552 624.356 966.934 651.629 990.543C654.231 992.795 653.445 998.997 654.883 1006.79C636.363 995.045 613.187 1008.66 599.493 988.156C599.188 987.733 580.003 995.314 579.249 1000.51C574.422 1034.61 549.676 1056.48 534.841 1084.25C532.505 1084.37 530.169 1084.5 527.872 1084.61C519.589 1063.45 509.64 1042.77 503.743 1020.95C500.775 1010.05 503.089 996.426 506.931 985.343C513.111 967.358 513.107 952.252 499.015 938.087C467.187 906.101 437.131 872.182 403.836 841.862C367.223 808.52 328.493 777.392 289.357 747.039C267.766 730.291 243.487 716.972 220.21 702.434C215.805 699.664 210.456 698.44 199.653 694.127C204.323 705.36 206.148 712.043 209.609 717.74C232.111 754.577 254.029 791.898 278.288 827.582C286.348 839.442 300.752 846.992 313.853 857.841C314.414 857.148 311.593 860.704 305.538 868.29C321.835 873.049 335.902 877.165 349.204 881.045C337.365 902.348 341.241 906.19 366.449 919.996C384.419 929.844 398.184 947.392 413.496 961.867C429.537 977.022 445.18 992.56 465.512 1012.33C450.748 1009.17 440.057 1006.46 429.242 1004.74C423.795 1003.89 418.092 1004.85 412.521 1004.99C413.821 1009.85 415.37 1014.68 416.303 1019.61C417.2 1024.42 417.494 1029.38 413.932 1034.85L410.325 1023.29C398.447 1039.9 387.615 1055.02 375.095 1072.47C358.409 1046.95 346.396 1024.49 355.736 994.343C358.575 985.169 353.08 969.488 345.953 961.869C321.725 935.974 293.606 913.666 269.656 887.554C234.865 849.672 192.432 822.591 149.321 796.11C146.55 794.428 143.162 793.672 138.503 791.887C138.193 795.739 136.907 798.817 137.917 800.531C159.624 836.622 176.219 876.121 210.707 903.479C222.763 913.057 232.385 925.767 242.534 937.537C244.561 939.883 243.99 944.421 243.921 943.924C269.339 966.988 293.924 989.32 321.161 1014.06C314.24 1014.58 310.13 1015.39 306.094 1015.05C300.34 1014.6 294.628 1013.32 288.857 1012.4C289.261 1018.4 289.677 1024.44 289.981 1028.88C280.051 1038.58 270.601 1047.74 260.499 1057.58C247.84 1044.14 244.486 1028.95 246.565 1010.69C247.654 1001.03 246.459 986.815 240.322 981.261C197.232 942.386 152.636 905.188 108.372 867.671C104.794 864.644 100.137 862.729 95.7955 860.717C94.1803 859.969 92.0058 860.474 87.3677 860.281C115.049 928.264 172.893 968.753 220.89 1020.73C216.276 1020.62 213.428 1020.9 210.687 1020.42C207.411 1019.88 204.239 1018.72 205.043 1018.94C195.98 1031 188.361 1041.19 180.73 1051.34C178.02 1051.24 175.322 1051.17 172.573 1051.08C170.179 1038.14 167.982 1025.15 165.301 1012.26C163.545 1004 163.698 992.858 158.429 988.286C124.953 959.188 90.1979 931.525 55.7624 903.504C53.8624 901.982 51.0812 901.511 45.7508 899.375C64.833 951.695 108.756 979.951 139.528 1014.64C130.459 1023.64 122.401 1031.59 110.926 1042.99C107.361 1015.91 102.363 993.514 80.3251 978.934C60.9399 966.075 43.6891 950.089 25.4857 935.479C22.9555 938.167 20.4253 940.856 17.9075 943.583C39.1143 967.961 60.3092 992.299 84.1553 1019.74C68.403 1037.77 51.6908 1056.88 31.1636 1080.38C40.1147 1078.06 47.3401 1077.97 52.2317 1074.54C61.7244 1067.87 69.3254 1058.59 78.7936 1051.84C82.7871 1049 89.4707 1049.94 94.9629 1049.13C94.5578 1055.17 96.5588 1063.52 93.3398 1066.77C84.9328 1075.26 74.2353 1081.54 63.2168 1089.55C70.7667 1096.86 77.5193 1104.94 88.4237 1094.76C95.8212 1087.88 102.595 1080.24 108.437 1074.19C116.037 1077.65 121.374 1080.09 126.751 1082.51C127.982 1076.9 128.798 1071.21 130.508 1065.75C132.192 1060.35 133.507 1053.77 137.378 1050.53C139.538 1048.74 147.081 1051.74 151.152 1054.27C156.28 1057.41 160.372 1062.22 168.276 1069.43C148.917 1085.18 130.738 1100 110.729 1116.3C117.601 1119.63 127.688 1124.56 137.156 1129.16C150.566 1115.53 162.433 1103.45 176.348 1089.36C179.095 1096.23 180.772 1100.49 182.549 1104.95C196.865 1104.32 204.365 1095.55 200.923 1083.55C197.557 1071.65 199.996 1062.99 209.874 1060.6C216.424 1059.03 225.249 1065.17 232.543 1068.89C236.649 1070.98 239.644 1075.18 244.522 1079.75C221.169 1103.74 206.395 1137.09 164.808 1135.99C164.598 1138.08 164.387 1140.18 164.177 1142.27C173.615 1147.06 183.843 1150.77 192.382 1156.83C208.394 1168.15 210.504 1154.28 218.129 1145.78C230.632 1131.86 245.802 1120.27 263.917 1104.13C266.014 1118.19 267.236 1126.4 268.433 1134.53C297.754 1129.4 302.097 1122.69 289.736 1095.39C282.212 1078.74 295.537 1074.11 303.954 1068.42C308.42 1065.43 319.147 1067 324.228 1070.56C334.736 1077.94 343.339 1088.08 352.683 1096.99C333.564 1119.18 315.558 1142.45 294.801 1163C287.647 1170.11 273.862 1170.91 262.857 1173.57C256.555 1175.1 249.721 1174.51 237.424 1175.24C244.619 1183.35 248.293 1188.21 252.751 1192.26C255.16 1194.44 258.86 1195.23 262.042 1196.57C273.9 1201.63 287.03 1212.3 297.297 1210.05C306.752 1207.96 312.361 1191.19 321.139 1182.37C333.695 1169.73 347.188 1157.88 361.148 1146.84C366.313 1142.77 373.984 1141.88 380.51 1139.55C381.636 1146.62 382.999 1153.62 383.747 1160.72C383.986 1163.15 382.762 1165.74 380.657 1175.33C396.71 1167.26 412.351 1164.23 418.191 1154.99C423.076 1147.25 419.779 1130.45 414.4 1120.82C400.783 1096.4 424.201 1091.73 433.624 1079.99C442.391 1069.05 452.07 1070.87 461.327 1080.89C466.881 1086.93 473.565 1091.88 479.635 1097.49C487.64 1104.88 495.512 1112.4 505.23 1121.54C500.734 1125.4 497.104 1128.99 493.044 1131.9C488.059 1135.44 478.82 1137.8 478.089 1141.83C473.334 1168.95 442.179 1173.19 432.802 1197.26C422.106 1224.73 395.049 1224.1 370.242 1225.15C362.908 1225.45 355.72 1228.3 348.463 1229.96C352.864 1235.62 356.048 1243.48 361.843 1246.55C381.64 1256.99 402.071 1266.42 422.864 1274.65C426.655 1276.14 436.682 1271.46 438.274 1267.43C457.01 1220.19 502.77 1199.92 534.588 1165.13C554.074 1192.85 557.905 1196.96 541.731 1223.2C552.112 1226.44 592.987 1214.6 594.871 1204.3C597.574 1189.43 597.528 1171.14 591.002 1158.11C576.272 1128.6 574.171 1129.35 598.835 1106.37C636.209 1071.54 627.023 1075.18 661.336 1105.44C678.794 1120.84 695.745 1136.84 712.949 1152.53C720.981 1159.87 720.939 1166.66 711.042 1172.04C703.213 1176.29 693.729 1178.56 687.485 1184.43C681.202 1190.32 675.2 1199.18 674.14 1207.41C672.77 1218.11 674.5 1222.97 659.182 1222.18C650.793 1221.73 638.852 1236.89 633.169 1247.47C608.551 1293.44 580.342 1308.37 528.487 1301.62C520.748 1300.62 512.305 1304.98 504.158 1306.83C508.637 1313.85 512.982 1321 517.672 1327.87C518.775 1329.47 520.786 1330.65 522.635 1331.46C550.886 1344.36 579.206 1357.06 607.418 1369.98C617.95 1374.81 625.478 1371.25 628.289 1360.88C635.854 1332.79 655.163 1313.56 675.8 1295.12C702.303 1271.41 728.947 1247.86 759.865 1220.43C766.194 1236.16 775.032 1248.29 774.694 1260.22C774.401 1271.19 764.256 1281.87 757.868 1293.79C759.39 1294.65 762.189 1297.53 763.648 1296.95C786.951 1287.48 810.169 1277.73 833.201 1267.53C835.74 1266.39 838.994 1261.32 838.317 1259.29C831.573 1238.77 844.066 1214.03 823.575 1196.37C807.764 1182.79 811.405 1170.65 826.974 1157.98C845.073 1143.31 861.567 1126.68 878.301 1110.42C888.377 1100.63 895.724 1101.61 905.818 1111.55C933.129 1138.46 961.61 1164.29 989.773 1190.34C1002.27 1201.89 1000.36 1211.55 984.902 1220.69C969.178 1229.95 953.815 1240.1 939.423 1251.28C936.298 1253.72 938.655 1262.52 937.293 1268.13C935.269 1276.31 932.206 1284.22 929.323 1292.97C924.047 1289.35 919.699 1286.35 911.078 1280.45C899.094 1298.51 888.214 1316.11 876.1 1332.79C864.121 1349.22 850.909 1364.74 838.082 1380.52C836.426 1382.55 833.687 1384.57 831.242 1384.9C800.668 1388.78 770.123 1392.48 739.495 1395.77C734.856 1396.27 729.561 1393 725.352 1394.18C717.262 1396.49 709.746 1400.78 702.023 1404.27C705.698 1410.37 707.918 1418.87 713.316 1422.2C732.862 1434.19 752.897 1445.81 773.908 1454.88C790.691 1462.16 810.763 1459.23 822.824 1479.9C827.909 1488.58 845.779 1490.22 858.184 1493.99C860.906 1494.82 865.613 1491.5 868.374 1489C870.776 1486.87 872.514 1483.3 873.282 1480.09C887.25 1423.93 932.856 1392.92 971.728 1356.79C999.751 1330.74 1029.19 1306.2 1062.95 1276.67C1073.77 1304.85 1084.31 1329.62 1092.15 1355.19C1093.63 1359.95 1084.39 1367.97 1080.23 1374.58C1075.49 1382.1 1070.82 1389.68 1066.15 1397.27C1075.13 1396.71 1084.9 1398.28 1092.88 1395.19C1116.54 1386.04 1139.68 1375.5 1162.57 1364.56C1176.49 1357.94 1179.66 1347.19 1173.97 1332C1170.88 1323.77 1173.6 1313.51 1172.91 1304.23C1172.44 1297.9 1172.39 1290.54 1169.19 1285.54C1158.14 1268.22 1146.59 1251.02 1133.6 1235.13C1125.37 1225.05 1124.62 1218.64 1134.74 1209.56C1164.37 1182.97 1193.61 1155.98 1222.15 1128.26C1232.98 1117.72 1239.78 1120.13 1249.33 1129.58C1284.47 1164.29 1320.09 1198.46 1355.95 1232.43C1362.2 1238.33 1370.41 1242.12 1377.73 1246.87C1387.07 1237.78 1396.42 1228.7 1405.8 1219.6C1410.52 1202.33 1418.71 1188.16 1437.83 1183.84L1437.74 1183.95L1437.57 1183.83Z" fill="white"/>
<rect x="173.268" y="481.157" width="153.452" height="29.3822" transform="rotate(4.42662 173.268 481.157)" fill="white"/>
</svg>
