<svg width="26" height="26" viewBox="0 0 26 26" fill="none" xmlns="http://www.w3.org/2000/svg">
<path fill-rule="evenodd" clip-rule="evenodd" d="M12.8752 11.0242C13.9251 11.0242 14.7651 10.4992 15.185 9.86925C15.71 9.23929 15.815 8.60934 15.815 8.08437H12.8752V7.24443H15.815C15.71 6.71947 15.5 6.08951 15.185 5.66954C14.5551 4.8296 13.6101 4.72461 12.9802 4.72461H11.3003V19.8436H12.8752V14.174H14.975V19.8436H16.8649V17.2187C16.8649 13.754 15.71 11.8641 12.8752 11.8641V11.0242Z" fill="white"/>
<path fill-rule="evenodd" clip-rule="evenodd" d="M19.1755 20.7885H8.99119V3.88473H12.5609H12.6659H13.5059C15.1858 3.88473 15.9207 4.19971 16.7606 4.82966C17.9156 5.7746 18.1255 7.1395 18.1255 7.76946C18.1255 8.6094 17.9156 9.44934 17.2856 10.1843C16.9706 10.6043 16.4457 11.1292 15.6057 11.4442C18.2305 12.3891 19.1755 14.489 19.1755 17.5338V20.7885ZM13.4009 0C6.47136 0 0.801758 5.6696 0.801758 12.5991C0.801758 19.5286 6.47136 25.1982 13.4009 25.1982C20.3304 25.1982 26 19.5286 26 12.5991C26 5.6696 20.3304 0 13.4009 0Z" fill="white"/>
</svg>
