<svg width="1280" height="786" viewBox="0 0 1280 786" fill="none" xmlns="http://www.w3.org/2000/svg">
<rect width="1280" height="786" fill="black"/>
<path d="M173.917 121.387C247.916 135.554 322.282 142.07 397.285 141.877C397.343 140.874 397.42 139.853 397.478 138.851C381.945 138.253 366.392 137.848 350.859 136.942C343.45 136.518 336.117 134.976 328.727 134.282C324.926 133.916 321.067 134.282 317.227 134.302C311.554 134.302 305.881 134.302 300.208 134.302C300.034 133.01 299.861 131.699 299.687 130.408C306.614 128.866 313.522 126.206 320.468 126.071C327.666 125.936 334.921 128.249 342.157 129.483C342.466 128.596 342.774 127.709 343.083 126.823C340.632 125.994 338.201 124.548 335.693 124.433C321.973 123.758 308.254 123.45 294.535 122.91C256.754 121.406 218.953 119.864 181.172 118.284C177.429 118.129 173.724 117.455 170 115.508C219.397 109.032 269.161 109.089 318.828 104.772C309.856 103.962 300.864 103.172 291.891 102.362C291.737 101.264 291.602 100.184 291.448 99.0854C294.766 98.0445 298.066 96.9844 301.288 95.9628C296.715 92.2427 271.052 93.5726 239.484 98.9505C218.818 102.478 198.095 105.735 177.082 108.029C186.112 104.984 195.027 101.514 204.173 98.9312C242.803 88.0406 282.224 82.2001 322.282 79.039C376.696 74.7406 431.13 75.0104 485.582 74.9333C489.789 74.9333 494.092 75.7429 497.044 70.9048C497.97 69.4013 501.829 69.2857 504.376 69.2471C518.115 69.0929 531.911 68.4182 545.592 69.3435C566.837 70.7698 586.654 66.2979 606.181 58.4721C612.066 56.1205 618.781 54.9255 625.129 54.8291C682.225 54.0581 739.341 53.7111 796.456 53.1329C839.853 52.6895 883.229 52.092 926.626 51.5908C964.465 51.1475 1002.32 50.7813 1040.16 50.2608C1048.83 50.1452 1057.49 49.5669 1066.13 49.0465C1071.56 48.7188 1075.65 50.0681 1079.1 54.8869C1083.79 61.4791 1086.24 60.8816 1091.24 54.6942C1092.92 52.6124 1096.41 50.762 1098.94 50.9355C1101.02 51.0704 1103.37 54.0388 1104.76 56.2747C1105.96 58.2023 1106.37 60.843 1106.46 63.2139C1107.33 84.0699 1108.45 104.926 1108.66 125.801C1108.78 137.27 1107.7 148.797 1106.42 160.208C1105.84 165.335 1104.19 170.636 1101.75 175.185C1098.22 181.835 1094.17 181.68 1090.02 175.57C1089.1 174.202 1088.11 172.872 1086.68 170.886C1084.33 172.428 1081.44 173.334 1080.24 175.281C1076.5 181.411 1071.02 182.027 1064.65 181.95C1004.87 181.199 945.111 180.524 885.333 179.984C831.575 179.502 777.797 179.31 724.039 178.847C689.809 178.558 655.578 178.192 621.367 177.44C615.501 177.305 609.345 175.801 603.923 173.508C585.419 165.682 566.509 161.75 546.267 162.81C531.622 163.581 516.88 162.444 502.196 162.077C500.305 162.039 497.391 162.058 496.735 160.979C492.722 154.252 486.296 156.121 480.546 156.102C452.818 155.986 425.051 156.873 397.362 155.832C337.429 153.577 277.381 151.553 218.934 135.844C205.446 132.22 192.113 127.999 178.741 123.951C177.043 123.43 175.519 122.274 173.917 121.406V121.387ZM610.947 133.396C609.789 133.068 608.631 132.74 607.493 132.413C606.567 135.034 605.641 137.655 604.695 140.277C606.181 140.701 607.667 141.125 609.152 141.549C609.751 138.831 610.349 136.113 610.947 133.396ZM1089.02 88.5418C1094.42 83.9735 1094.29 80.716 1091.43 77.5162C1090.62 77.5162 1089.83 77.5162 1089.02 77.5162V88.5418ZM325.157 104.617C325.157 105.061 325.177 105.504 325.196 105.947H343.334C343.315 105.504 343.295 105.061 343.276 104.617H325.157Z" fill="white"/>
<path d="M1104.75 260.343C1030.75 274.511 956.388 281.026 881.385 280.833C881.327 279.831 881.25 278.809 881.192 277.807C896.725 277.209 912.278 276.804 927.811 275.898C935.22 275.474 942.553 273.932 949.943 273.238C953.744 272.872 957.603 273.238 961.443 273.258C967.116 273.258 972.789 273.258 978.462 273.258C978.636 271.966 978.809 270.655 978.983 269.364C972.056 267.822 965.148 265.162 958.202 265.027C951.004 264.892 943.749 267.205 936.513 268.439C936.204 267.552 935.896 266.665 935.587 265.779C938.037 264.95 940.469 263.504 942.977 263.389C956.696 262.714 970.416 262.406 984.135 261.866C1021.92 260.362 1059.72 258.82 1097.5 257.24C1101.24 257.086 1104.95 256.411 1108.67 254.464C1059.27 247.988 1009.51 248.045 959.842 243.728C968.814 242.918 977.806 242.128 986.779 241.318C986.933 240.22 987.068 239.14 987.222 238.041C983.903 237.001 980.604 235.94 977.382 234.919C981.955 231.199 1007.62 232.529 1039.19 237.907C1059.85 241.434 1080.58 244.691 1101.59 246.985C1092.56 243.94 1083.64 240.47 1074.5 237.887C1035.87 226.997 996.446 221.156 956.388 217.995C901.974 213.697 847.54 213.967 793.088 213.889C788.881 213.889 784.578 214.699 781.626 209.861C780.7 208.357 776.841 208.242 774.294 208.203C760.555 208.049 746.758 207.374 733.078 208.3C711.833 209.726 692.016 205.254 672.489 197.428C666.604 195.077 659.889 193.882 653.541 193.785C596.444 193.014 539.329 192.667 482.214 192.089C438.817 191.646 395.44 191.048 352.044 190.547C314.205 190.104 276.347 189.737 238.508 189.217C229.844 189.101 221.18 188.523 212.536 188.003C207.114 187.675 203.023 189.024 199.569 193.843C194.88 200.435 192.43 199.838 187.432 193.65C185.753 191.568 182.261 189.718 179.733 189.892C177.649 190.026 175.295 192.995 173.906 195.231C172.709 197.158 172.304 199.799 172.208 202.17C171.339 223.026 170.22 243.882 170.008 264.757C169.892 276.226 170.973 287.753 172.246 299.164C172.825 304.291 174.485 309.592 176.916 314.141C180.447 320.791 184.499 320.637 188.648 314.526C189.574 313.158 190.558 311.828 191.986 309.842C194.34 311.384 197.234 312.29 198.431 314.237C202.174 320.367 207.654 320.983 214.022 320.906C273.8 320.155 333.559 319.48 393.337 318.94C447.095 318.458 500.873 318.266 554.631 317.803C588.861 317.514 623.092 317.148 657.303 316.396C663.169 316.261 669.325 314.758 674.747 312.464C693.251 304.638 712.161 300.706 732.402 301.766C747.048 302.537 761.79 301.4 776.474 301.033C778.365 300.995 781.279 301.014 781.935 299.935C785.948 293.208 792.374 295.077 798.124 295.058C825.852 294.942 853.618 295.829 881.308 294.788C941.241 292.533 1001.29 290.509 1059.74 274.8C1073.22 271.176 1086.56 266.955 1099.93 262.907C1101.63 262.386 1103.15 261.23 1104.75 260.362V260.343ZM667.723 272.352C668.881 272.024 670.039 271.696 671.177 271.369C672.103 273.99 673.029 276.612 673.975 279.233C672.489 279.657 671.003 280.081 669.518 280.505C668.919 277.787 668.321 275.07 667.723 272.352ZM189.651 227.498C184.248 222.93 184.383 219.672 187.239 216.472C188.05 216.472 188.841 216.472 189.651 216.472V227.498ZM953.513 243.574C953.513 244.017 953.493 244.46 953.474 244.904H935.336C935.355 244.46 935.375 244.017 935.394 243.574H953.513Z" fill="white"/>
<path d="M173.917 399.299C247.916 413.467 322.282 419.982 397.285 419.789C397.343 418.787 397.42 417.765 397.478 416.763C381.945 416.165 366.392 415.76 350.859 414.854C343.45 414.43 336.117 412.888 328.727 412.194C324.926 411.828 321.067 412.194 317.227 412.214C311.554 412.214 305.881 412.214 300.208 412.214C300.034 410.922 299.861 409.612 299.687 408.32C306.614 406.778 313.522 404.118 320.468 403.983C327.666 403.848 334.921 406.161 342.157 407.395C342.466 406.508 342.774 405.621 343.083 404.735C340.632 403.906 338.201 402.46 335.693 402.345C321.973 401.67 308.254 401.362 294.535 400.822C256.754 399.318 218.953 397.776 181.172 396.196C177.429 396.042 173.724 395.367 170 393.42C219.397 386.944 269.161 387.001 318.828 382.684C309.856 381.874 300.864 381.084 291.891 380.274C291.737 379.176 291.602 378.096 291.448 376.998C294.766 375.957 298.066 374.897 301.288 373.875C296.715 370.155 271.052 371.485 239.484 376.863C218.818 380.39 198.095 383.648 177.082 385.941C186.112 382.896 195.027 379.426 204.173 376.843C242.803 365.953 282.224 360.112 322.282 356.951C376.696 352.653 431.13 352.923 485.582 352.845C489.789 352.845 494.092 353.655 497.044 348.817C497.97 347.313 501.829 347.198 504.376 347.159C518.115 347.005 531.911 346.33 545.592 347.256C566.837 348.682 586.654 344.21 606.181 336.384C612.066 334.033 618.781 332.838 625.129 332.741C682.225 331.97 739.341 331.623 796.456 331.045C839.853 330.602 883.229 330.004 926.626 329.503C964.465 329.06 1002.32 328.693 1040.16 328.173C1048.83 328.057 1057.49 327.479 1066.13 326.959C1071.56 326.631 1075.65 327.98 1079.1 332.799C1083.79 339.391 1086.24 338.794 1091.24 332.606C1092.92 330.525 1096.41 328.674 1098.94 328.848C1101.02 328.983 1103.37 331.951 1104.76 334.187C1105.96 336.114 1106.37 338.755 1106.46 341.126C1107.33 361.982 1108.45 382.838 1108.66 403.713C1108.78 415.182 1107.7 426.709 1106.42 438.12C1105.84 443.247 1104.19 448.548 1101.75 453.097C1098.22 459.747 1094.17 459.593 1090.02 453.482C1089.1 452.114 1088.11 450.784 1086.68 448.798C1084.33 450.34 1081.44 451.246 1080.24 453.193C1076.5 459.323 1071.02 459.94 1064.65 459.862C1004.87 459.111 945.111 458.436 885.333 457.896C831.575 457.414 777.797 457.222 724.039 456.759C689.809 456.47 655.578 456.104 621.367 455.352C615.501 455.217 609.345 453.714 603.923 451.42C585.419 443.594 566.509 439.662 546.267 440.722C531.622 441.493 516.88 440.356 502.196 439.99C500.305 439.951 497.391 439.97 496.735 438.891C492.722 432.164 486.296 434.033 480.546 434.014C452.818 433.898 425.051 434.785 397.362 433.744C337.429 431.489 277.381 429.465 218.934 413.756C205.446 410.132 192.113 405.911 178.741 401.863C177.043 401.342 175.519 400.186 173.917 399.318V399.299ZM610.947 411.308C609.789 410.98 608.631 410.652 607.493 410.325C606.567 412.946 605.641 415.568 604.695 418.189C606.181 418.613 607.667 419.037 609.152 419.461C609.751 416.743 610.349 414.026 610.947 411.308ZM1089.02 366.454C1094.42 361.886 1094.29 358.628 1091.43 355.428C1090.62 355.428 1089.83 355.428 1089.02 355.428V366.454ZM325.157 382.53C325.157 382.973 325.177 383.416 325.196 383.86H343.334C343.315 383.416 343.295 382.973 343.276 382.53H325.157Z" fill="white"/>
<path d="M1104.75 538.255C1030.75 552.423 956.388 558.938 881.385 558.745C881.327 557.743 881.25 556.721 881.192 555.719C896.725 555.121 912.278 554.716 927.811 553.81C935.22 553.386 942.553 551.844 949.943 551.15C953.744 550.784 957.603 551.15 961.443 551.17C967.116 551.17 972.789 551.17 978.462 551.17C978.636 549.878 978.809 548.568 978.983 547.276C972.056 545.734 965.148 543.074 958.202 542.939C951.004 542.804 943.749 545.117 936.513 546.351C936.204 545.464 935.896 544.578 935.587 543.691C938.037 542.862 940.469 541.416 942.977 541.301C956.696 540.626 970.416 540.318 984.135 539.778C1021.92 538.274 1059.72 536.732 1097.5 535.152C1101.24 534.998 1104.95 534.323 1108.67 532.376C1059.27 525.9 1009.51 525.958 959.842 521.64C968.814 520.83 977.806 520.04 986.779 519.23C986.933 518.132 987.068 517.052 987.222 515.954C983.903 514.913 980.604 513.853 977.382 512.831C981.955 509.111 1007.62 510.441 1039.19 515.819C1059.85 519.346 1080.58 522.604 1101.59 524.897C1092.56 521.852 1083.64 518.382 1074.5 515.799C1035.87 504.909 996.446 499.068 956.388 495.907C901.974 491.609 847.54 491.879 793.088 491.802C788.881 491.802 784.578 492.611 781.626 487.773C780.7 486.269 776.841 486.154 774.294 486.115C760.555 485.961 746.758 485.286 733.078 486.212C711.833 487.638 692.016 483.166 672.489 475.34C666.604 472.989 659.889 471.794 653.541 471.697C596.444 470.926 539.329 470.579 482.214 470.001C438.817 469.558 395.44 468.96 352.044 468.459C314.205 468.016 276.347 467.649 238.508 467.129C229.844 467.013 221.18 466.435 212.536 465.915C207.114 465.587 203.023 466.936 199.569 471.755C194.88 478.347 192.43 477.75 187.432 471.562C185.753 469.481 182.261 467.63 179.733 467.804C177.649 467.939 175.295 470.907 173.906 473.143C172.709 475.07 172.304 477.711 172.208 480.082C171.339 500.938 170.22 521.794 170.008 542.669C169.892 554.138 170.973 565.665 172.246 577.076C172.825 582.203 174.485 587.504 176.916 592.053C180.447 598.703 184.499 598.549 188.648 592.438C189.574 591.07 190.558 589.74 191.986 587.754C194.34 589.296 197.234 590.202 198.431 592.149C202.174 598.279 207.654 598.896 214.022 598.818C273.8 598.067 333.559 597.392 393.337 596.852C447.095 596.371 500.873 596.178 554.631 595.715C588.861 595.426 623.092 595.06 657.303 594.308C663.169 594.173 669.325 592.67 674.747 590.376C693.251 582.55 712.161 578.618 732.402 579.678C747.048 580.449 761.79 579.312 776.474 578.946C778.365 578.907 781.279 578.926 781.935 577.847C785.948 571.12 792.374 572.989 798.124 572.97C825.852 572.855 853.618 573.741 881.308 572.7C941.241 570.445 1001.29 568.421 1059.74 552.712C1073.22 549.088 1086.56 544.867 1099.93 540.819C1101.63 540.298 1103.15 539.142 1104.75 538.274V538.255ZM667.723 550.264C668.881 549.936 670.039 549.608 671.177 549.281C672.103 551.902 673.029 554.524 673.975 557.145C672.489 557.569 671.003 557.993 669.518 558.417C668.919 555.699 668.321 552.982 667.723 550.264ZM189.651 505.41C184.248 500.842 184.383 497.584 187.239 494.384C188.05 494.384 188.841 494.384 189.651 494.384V505.41ZM953.513 521.486C953.513 521.929 953.493 522.372 953.474 522.816H935.336C935.355 522.372 935.375 521.929 935.394 521.486H953.513Z" fill="white"/>
<path d="M173.917 677.211C247.916 691.379 322.282 697.894 397.285 697.701C397.343 696.699 397.42 695.677 397.478 694.675C381.945 694.077 366.392 693.672 350.859 692.767C343.45 692.342 336.117 690.8 328.727 690.107C324.926 689.74 321.067 690.107 317.227 690.126C311.554 690.126 305.881 690.126 300.208 690.126C300.034 688.834 299.861 687.524 299.687 686.232C306.614 684.69 313.522 682.03 320.468 681.895C327.666 681.76 334.921 684.073 342.157 685.307C342.466 684.42 342.774 683.534 343.083 682.647C340.632 681.818 338.201 680.372 335.693 680.257C321.973 679.582 308.254 679.274 294.535 678.734C256.754 677.231 218.953 675.688 181.172 674.108C177.429 673.954 173.724 673.279 170 671.332C219.397 664.856 269.161 664.914 318.828 660.596C309.856 659.786 300.864 658.996 291.891 658.186C291.737 657.088 291.602 656.008 291.448 654.91C294.766 653.869 298.066 652.809 301.288 651.787C296.715 648.067 271.052 649.397 239.484 654.775C218.818 658.302 198.095 661.56 177.082 663.853C186.112 660.808 195.027 657.338 204.173 654.755C242.803 643.865 282.224 638.024 322.282 634.863C376.696 630.565 431.13 630.835 485.582 630.758C489.789 630.758 494.092 631.567 497.044 626.729C497.97 625.226 501.829 625.11 504.376 625.071C518.115 624.917 531.911 624.242 545.592 625.168C566.837 626.594 586.654 622.122 606.181 614.296C612.066 611.945 618.781 610.75 625.129 610.653C682.225 609.882 739.341 609.535 796.456 608.957C839.853 608.514 883.229 607.916 926.626 607.415C964.465 606.972 1002.32 606.605 1040.16 606.085C1048.83 605.969 1057.49 605.391 1066.13 604.871C1071.56 604.543 1075.65 605.892 1079.1 610.711C1083.79 617.303 1086.24 616.706 1091.24 610.518C1092.92 608.437 1096.41 606.586 1098.94 606.76C1101.02 606.895 1103.37 609.863 1104.76 612.099C1105.96 614.027 1106.37 616.667 1106.46 619.038C1107.33 639.894 1108.45 660.75 1108.66 681.625C1108.78 693.094 1107.7 704.621 1106.42 716.032C1105.84 721.159 1104.19 726.46 1101.75 731.009C1098.22 737.659 1094.17 737.505 1090.02 731.394C1089.1 730.026 1088.11 728.696 1086.68 726.71C1084.33 728.253 1081.44 729.158 1080.24 731.105C1076.5 737.235 1071.02 737.852 1064.65 737.775C1004.87 737.023 945.111 736.348 885.333 735.808C831.575 735.327 777.797 735.134 724.039 734.671C689.809 734.382 655.578 734.016 621.367 733.264C615.501 733.129 609.345 731.626 603.923 729.332C585.419 721.506 566.509 717.574 546.267 718.634C531.622 719.405 516.88 718.268 502.196 717.902C500.305 717.863 497.391 717.882 496.735 716.803C492.722 710.076 486.296 711.946 480.546 711.926C452.818 711.811 425.051 712.697 397.362 711.656C337.429 709.401 277.381 707.377 218.934 691.668C205.446 688.044 192.113 683.823 178.741 679.775C177.043 679.254 175.519 678.098 173.917 677.231V677.211ZM610.947 689.22C609.789 688.892 608.631 688.564 607.493 688.237C606.567 690.858 605.641 693.48 604.695 696.101C606.181 696.525 607.667 696.949 609.152 697.373C609.751 694.656 610.349 691.938 610.947 689.22ZM1089.02 644.366C1094.42 639.798 1094.29 636.54 1091.43 633.34C1090.62 633.34 1089.83 633.34 1089.02 633.34V644.366ZM325.157 660.442C325.157 660.885 325.177 661.328 325.196 661.772H343.334C343.315 661.328 343.295 660.885 343.276 660.442H325.157Z" fill="white"/>
</svg>
